<svg xmlns="http://www.w3.org/2000/svg" height="2048" preserveAspectRatio="none" style="display: block;" version="1.1" viewBox="0 0 2048 2048" width="2048">
<path d="M 0 0 L 2048 0 L 2048 2048 L 0 2048 L 0 0 z" fill="rgb(24,17,22)" transform="translate(0,0)"></path>
<path d="M 928.592 741.171 C 960.189 738.026 992.258 758.066 1008.25 784.63 C 1013.44 793.189 1016.7 802.77 1017.82 812.713 C 1019.35 825.324 1018.79 841.811 1018.62 854.643 C 1018.05 898.689 1018.75 942.712 1018.57 986.748 C 1018.55 991.719 1017.57 998.004 1016.34 1002.82 C 1012.1 1018.93 1001.63 1032.7 987.245 1041.1 C 974.402 1048.47 959.139 1050.38 944.873 1046.41 C 927.09 1041.45 913.668 1027.48 905.102 1011.65 C 909.995 997.013 908.037 982.304 891.401 977.14 C 884.798 975.07 877.634 975.816 871.6 979.202 C 851.852 990.204 857.014 1018.4 882.575 1023.21 C 895.615 1054.65 922.22 1073.36 954.752 1080.46 C 954.858 1087.62 952.89 1109.83 957.749 1113.09 C 988.304 1133.59 982.331 1084.95 982.478 1075.18 C 998.014 1068.65 1004.19 1065.76 1018.21 1056.17 L 1018.39 1240.98 C 1018.43 1268.21 1021.23 1312.24 1016.9 1337.16 C 1012.78 1360.87 998.292 1382.04 978.577 1395.6 C 963.951 1405.65 946.362 1411.39 928.581 1407.64 C 917.131 1405.23 907.037 1399.47 898.454 1391.62 C 863.466 1359.61 879.693 1318.51 868.951 1305.47 C 866.668 1302.7 863.164 1301.53 859.67 1301.52 C 856.319 1301.51 852.243 1302.68 850.028 1305.32 C 843.486 1313.14 852.023 1366.16 853.38 1378.48 C 840.852 1379.04 828.327 1377.35 816.396 1373.48 C 764.447 1356.68 736.361 1310.46 768.088 1258.06 C 771.407 1252.58 783.701 1248.29 785.366 1241.55 C 786.714 1236.08 782.735 1227.06 776.44 1226.13 C 763.95 1225.51 752.635 1244.18 743.495 1251.55 C 727.019 1266.38 722.266 1267.82 701.101 1268.54 C 664.39 1269.78 635.893 1261.53 610.758 1231.55 C 587.887 1203.95 576.831 1168.43 579.991 1132.72 C 583.688 1093.54 604.354 1062.5 634.17 1037.8 C 639.918 1039.27 646.134 1040.25 652 1041.3 C 652.833 1048.69 655.132 1052.14 658.679 1058.49 C 665.54 1069.37 669.939 1075.18 678.898 1084.35 C 663.566 1100.48 647.386 1127.58 642.837 1149.49 C 640.161 1163.36 637.64 1183.39 645.246 1195.95 C 650.385 1204.44 663.845 1206.11 671.385 1199.65 C 682.021 1190.54 674.05 1177.69 672.979 1166.52 C 671.001 1145.91 678.473 1122.5 695.06 1109.35 C 706.27 1100.54 715.613 1100.13 728.814 1101.82 C 732.559 1108.17 738.5 1116.77 743.196 1122.37 C 776.867 1162.51 803.825 1181.33 855.299 1187.19 C 854.603 1222.63 874.746 1251.16 905.842 1267.59 C 914.688 1272.26 926.045 1275.77 935.958 1273.95 C 941.875 1272.87 950.916 1267.75 947.052 1260.42 C 940.809 1248.76 925.98 1250.51 915.369 1245.72 C 901.119 1240.22 890.092 1230.16 884.342 1216.19 C 873.739 1190.41 891.381 1176.11 903.221 1156.68 C 907.683 1149.36 900.802 1139.87 893.58 1137.4 C 889.147 1135.88 884.207 1136.24 879.829 1138.54 C 873.639 1141.64 870.604 1144.98 868.169 1151.48 C 828.084 1166.38 791.55 1143.35 773.403 1106.4 C 770.619 1100.73 769.83 1095.46 772.259 1089.6 C 815.645 1102.05 819.927 1053.31 792.597 1046.47 C 785.881 1044.73 778.747 1045.81 772.843 1049.45 C 764.714 1054.52 762.822 1060.1 760.685 1068.68 C 695.734 1090.85 662.682 1042.57 662.013 982.399 C 661.579 943.377 690.385 905.137 733.031 918.255 C 734.941 930.998 737.683 938.728 745.001 949.706 C 751.667 959.704 771.775 977.93 783.285 979.383 C 786.947 979.841 790.631 978.725 793.422 976.31 C 796.094 974.04 798.178 969.837 798.027 966.41 C 797.579 956.235 792.939 956.038 785.59 951.751 C 782.949 950.21 777.683 945.322 775.55 943.125 C 763.057 930.382 756.167 913.181 756.407 895.338 C 757.18 848.852 799.273 821.433 842.934 823.121 C 843.614 858.734 862.227 886.64 896.624 898.661 C 906.015 901.943 936.215 908.702 923.566 883.709 C 922.223 881.055 905.483 874.082 901.155 871.347 C 865.662 848.92 866.408 783.505 896.009 756.466 C 906.012 747.341 915.868 743.789 928.592 741.171 z" fill="rgb(66,167,233)" transform="translate(0,0)"></path>
<path d="M 1426.77 922.659 L 1481.99 922.873 L 1481.86 1051.53 L 1370.28 1161.52 L 1370.2 1325.29 C 1354.39 1340 1338.63 1355.75 1323.43 1371.12 C 1270.27 1424.88 1215.47 1477.26 1162.47 1531.14 L 1057.85 1531.06 L 1057.78 1414.27 L 1115.3 1414.68 C 1117.51 1407.35 1121.35 1401.03 1128.52 1397.58 C 1151.99 1386.27 1175.42 1408.34 1166.43 1432.41 C 1159.43 1451.15 1136.32 1454.66 1122.24 1441.08 L 1084.88 1441.02 L 1084.74 1504.62 C 1107.12 1504.36 1129.51 1504.26 1151.89 1504.32 L 1344.06 1313.6 C 1343.98 1272.29 1344.45 1229.55 1343.43 1188.36 C 1330.99 1200.5 1318.33 1213.19 1305.74 1225.11 L 1305.87 1282.77 C 1280.51 1308.32 1254.99 1333.7 1229.32 1358.93 L 1058.08 1358.6 L 1057.93 1247.06 L 1085.09 1247.11 C 1084.92 1256.05 1084.85 1264.99 1084.89 1273.93 L 1232.54 1273.81 C 1232.91 1229.33 1232.83 1184.83 1232.32 1140.35 C 1343.56 1140.19 1426.81 1061.85 1426.94 949.414 L 1426.77 922.659 z" fill="rgb(78,64,207)" transform="translate(0,0)"></path>
<path d="M 1426.94 949.414 L 1455.57 949.337 C 1455.52 979.241 1456.01 1011 1455.25 1040.73 C 1413.21 1082.6 1370.94 1124.23 1328.43 1165.62 C 1312.75 1180.93 1294.87 1200.01 1279.11 1214.4 L 1278.81 1272.56 C 1259.53 1291.97 1239.12 1312.89 1219.19 1331.54 L 1084.98 1331.82 L 1084.89 1273.93 L 1232.54 1273.81 C 1232.91 1229.33 1232.83 1184.83 1232.32 1140.35 C 1343.56 1140.19 1426.81 1061.85 1426.94 949.414 z" fill="rgb(24,17,22)" transform="translate(0,0)"></path>
<path d="M 900.275 509.361 C 981.099 502.234 1022.31 570.611 1015.74 642.73 C 1012.17 681.884 1021.49 696.709 1001.38 735.952 C 968.223 705.453 937.157 696.711 898.19 723.615 C 870.13 742.988 851.039 768.216 844.247 801.883 C 825.426 797.744 816.063 796.253 797.015 797.071 C 782.06 775.753 777.424 760.933 772.363 735.775 C 790.574 722.102 790.618 698.327 770.673 688.916 C 737.426 673.228 712.025 724.813 754.366 739.61 C 753.503 765.533 755.593 785.678 762.767 810.442 C 752.155 818.604 749.126 822.479 740.807 833.242 C 728.46 824.035 719.134 820.566 704.665 815.652 C 702.398 801.176 690.917 790.43 676.096 796.304 C 665.101 800.661 667.367 807.957 662.762 814.027 L 646.222 814.379 C 642.962 768.641 648.958 727.11 677.552 690.381 C 710.33 648.279 760.911 626.578 813.915 635.296 C 833.167 638.462 843.442 643.706 858.423 655.47 C 854.578 660.87 852.852 663.304 849.813 669.253 C 834.476 675.344 821.631 688.755 834.687 704.453 C 838.627 709.255 844.337 712.265 850.525 712.802 C 870.015 714.406 880.095 691.246 866.312 675.624 C 881.845 655.363 891.632 645.882 915.428 636.364 C 923.209 640.422 930.346 643.602 939.118 639.801 C 944.075 637.625 947.926 633.516 949.777 628.428 C 951.89 622.814 951.624 616.58 949.038 611.167 C 940.185 592.59 915.38 596.388 908.759 618.938 C 894.057 624.343 888.958 627.192 875.882 635.937 C 844.079 612.343 818.319 606.46 778.631 604.411 C 803.776 555.683 844.038 516.874 900.275 509.361 z" fill="rgb(78,64,207)" transform="translate(0,0)"></path>
<path d="M 1284.7 593.98 C 1315.3 623.97 1346.07 653.785 1377.01 683.425 C 1388.37 694.349 1416.94 720.383 1425.38 730.782 L 1426.77 922.659 L 1426.94 949.414 C 1426.81 1061.85 1343.56 1140.19 1232.32 1140.35 C 1232.83 1184.83 1232.91 1229.33 1232.54 1273.81 L 1084.89 1273.93 C 1084.85 1264.99 1084.92 1256.05 1085.09 1247.11 C 1125.24 1247.39 1165.38 1247.4 1205.53 1247.16 C 1206.21 1211.17 1205.79 1174.03 1205.82 1137.95 C 1170.39 1131.07 1141.9 1117.35 1114.47 1094.18 C 1117.15 1084.91 1119.06 1069.86 1122.22 1061.94 C 1142.45 1083.19 1166.41 1098.73 1194.94 1106.36 C 1237.38 1117.85 1282.65 1111.91 1320.69 1089.86 C 1357.23 1068.54 1383.73 1033.49 1394.28 992.525 C 1404.89 951.312 1398.54 907.562 1376.64 871.07 C 1354.95 834.548 1319.62 808.153 1278.44 797.699 C 1237.9 787.3 1194.88 793.535 1158.95 815.015 C 1118.73 839.236 1094.39 876.046 1083.38 921.079 L 1057.68 921.145 C 1058.45 861.622 1058.03 801.128 1057.86 741.564 C 1082.19 717.559 1108.09 690.395 1132.86 667.492 L 1132.97 629.412 L 1159.42 629.445 C 1159.14 645.689 1159.14 661.937 1159.41 678.181 L 1084.82 752.096 L 1084.93 846.557 C 1118.75 802.733 1158.69 773.23 1215.24 766.15 C 1264.56 759.689 1314.42 773.135 1353.81 803.516 C 1373.52 818.874 1385.04 833.489 1399.86 852.833 C 1399.99 816.986 1398.75 777.551 1399.61 742.23 C 1370.46 715.82 1340.73 683.051 1311.73 657.915 L 1311.87 710.536 C 1334.16 726.785 1327.41 756.895 1302.32 759.274 C 1294.56 759.993 1286.85 757.489 1280.99 752.349 C 1266.72 739.834 1271.75 722.976 1284.85 711.936 L 1284.7 593.98 z" fill="rgb(66,167,233)" transform="translate(0,0)"></path>
<path d="M 1228.05 845.898 C 1286.73 840.777 1338.51 884.068 1343.86 942.728 C 1349.22 1001.39 1306.13 1053.34 1247.49 1058.92 C 1188.52 1064.54 1136.22 1021.16 1130.84 962.169 C 1125.45 903.179 1169.04 851.048 1228.05 845.898 z" fill="rgb(78,64,207)" transform="translate(0,0)"></path>
<path d="M 1233.73 874.043 C 1276.97 872.088 1313.66 905.462 1315.8 948.7 C 1317.94 991.937 1284.72 1028.77 1241.49 1031.08 C 1198 1033.42 1160.91 999.954 1158.76 956.459 C 1156.61 912.964 1190.22 876.009 1233.73 874.043 z" fill="rgb(24,17,22)" transform="translate(0,0)"></path>
<path d="M 1229.68 910.633 C 1252.46 905.458 1275.09 919.866 1280.04 942.699 C 1285 965.532 1270.37 988.018 1247.49 992.747 C 1224.92 997.411 1202.81 983.028 1197.92 960.507 C 1193.04 937.987 1207.21 915.736 1229.68 910.633 z" fill="rgb(66,167,233)" transform="translate(0,0)"></path>
<path d="M 1013.18 1401.09 C 1017.3 1405.38 1018.76 1428.87 1018.58 1435.16 C 1017.81 1462.11 1005.64 1489.49 986.489 1508.15 C 967.014 1527.25 940.707 1537.76 913.435 1537.34 C 886.044 1537.04 859.926 1525.72 840.983 1505.93 C 820.707 1484.78 814.615 1461.14 815.071 1432.67 C 816.48 1421.01 818.038 1414.52 821.759 1403.44 C 838.123 1406.76 853.936 1406.88 870.522 1405.18 C 882.342 1418.64 888.103 1419.56 904.546 1425.5 L 897.367 1440.92 C 876.927 1447.96 874.1 1472.48 892.116 1480.98 C 897.852 1483.66 904.424 1483.94 910.364 1481.75 C 925.99 1475.89 926.778 1462.04 920.371 1448.69 C 923.245 1444.74 926.351 1440.77 929.31 1436.88 C 945.581 1441.35 954.506 1440.91 968.399 1430.1 C 982.56 1419.08 997.377 1409.55 1013.18 1401.09 z" fill="rgb(78,64,207)" transform="translate(0,0)"></path>
<path d="M 669.662 829.361 C 695.478 828.381 713.62 837.794 733.103 853.47 C 729.716 861.685 728.391 868.312 726.598 876.979 C 719.819 877.646 713.805 878.478 707.193 880.205 C 656.433 893.458 631.714 952.483 630.889 1000.54 C 625.467 1003.61 621.932 1005.88 616.815 1009.41 C 608.031 1017.79 605.62 1021.24 599.665 1031.86 C 583.485 1014.05 575.881 993.693 572.911 969.948 C 568.73 933.727 579.012 897.319 601.524 868.635 C 619.218 846.061 641.226 832.777 669.662 829.361 z" fill="rgb(78,64,207)" transform="translate(0,0)"></path>
<path d="M 1063.96 508.225 C 1065.14 508.042 1066.33 507.892 1067.52 507.774 C 1079.31 506.662 1084.68 510.432 1093.19 517.318 C 1130.34 517.618 1167.51 517.607 1204.67 517.284 C 1213.46 526.357 1223.34 535.583 1232.5 544.39 L 1232.73 697.53 C 1242.98 707.927 1248.08 720.471 1239.86 734.092 C 1236.24 740.174 1230.2 744.427 1223.26 745.784 C 1214.5 747.519 1207.83 744.836 1200.69 740.25 C 1186.02 724.203 1188.64 709.429 1205.87 697.235 L 1205.88 555.908 C 1201.04 551.405 1198.74 548.986 1194.5 543.913 C 1162.22 543.874 1129.93 543.998 1097.64 544.287 C 1084.91 565.755 1058.96 568.711 1047.68 545.784 C 1044.51 539.426 1044.01 532.067 1046.29 525.337 C 1049.41 516.364 1055.72 511.92 1063.96 508.225 z" fill="rgb(66,167,233)" transform="translate(0,0)"></path>
<path d="M 669.596 1291.02 C 688.298 1292.23 699.311 1291.86 717.757 1290.78 C 722.192 1308.72 729.635 1324.28 739.378 1339.85 C 733.59 1345.17 730.093 1349.48 729.199 1357.59 C 728.542 1363.65 730.396 1369.72 734.331 1374.39 C 738.326 1379.13 744.11 1381.99 750.301 1382.31 C 759.905 1382.77 764.788 1378.61 771.167 1372.67 C 779.955 1381.52 787.822 1388.67 797.814 1396.07 L 794.695 1410.25 C 793.412 1417.24 791.917 1427.47 789.462 1433.83 C 788.174 1434.71 786.704 1435.27 785.125 1435.06 C 731.672 1427.88 684.941 1386.51 672.739 1333.68 C 669.243 1318.54 669.235 1306.32 669.596 1291.02 z" fill="rgb(78,64,207)" transform="translate(0,0)"></path>
<path d="M 1057.83 978.991 L 1082.7 979.071 C 1088.38 1012.44 1100.07 1036.61 1122.22 1061.94 C 1119.06 1069.86 1117.15 1084.91 1114.47 1094.18 C 1101.93 1082.67 1095.06 1074.21 1084.76 1060.77 L 1084.92 1157.72 C 1077.21 1157.21 1065.83 1157.54 1057.84 1157.52 L 1057.83 978.991 z" fill="rgb(78,64,207)" transform="translate(0,0)"></path>
<path d="M 1091.1 629.361 C 1084.46 636.4 1078.01 641.747 1067.54 641.773 C 1060.58 641.754 1053.91 638.946 1049.03 633.978 C 1043.61 628.537 1040.63 621.118 1040.81 613.436 C 1041.27 587.079 1073.89 577.687 1090.03 598.565 C 1091.17 600.032 1092.23 601.558 1093.21 603.137 L 1159.55 602.955 C 1159.55 610.756 1159.9 621.923 1159.42 629.445 L 1132.97 629.412 L 1091.1 629.361 z" fill="rgb(78,64,207)" transform="translate(0,0)"></path>
<path d="M 1115.39 1157.81 C 1125.16 1143.24 1141.12 1133.87 1156.36 1146.05 C 1187.58 1170.99 1152.54 1215.76 1119.23 1184.83 L 1057.83 1184.32 L 1057.84 1157.52 C 1065.83 1157.54 1077.21 1157.21 1084.92 1157.72 C 1093.74 1158.15 1106.32 1157.81 1115.39 1157.81 z" fill="rgb(66,167,233)" transform="translate(0,0)"></path>
<metadata></metadata></svg>