<svg xmlns="http://www.w3.org/2000/svg" height="2048" preserveAspectRatio="none" style="display: block;" version="1.1" viewBox="0 0 2048 2048" width="2048">
<defs>
	<linearGradient gradientUnits="userSpaceOnUse" id="Gradient1" x1="783.143" x2="1177.04" y1="740.355" y2="633.56">
		<stop class="stop0" offset="0" stop-color="rgb(11,1,20)" stop-opacity="1"></stop>
		<stop class="stop1" offset="1" stop-color="rgb(57,13,167)" stop-opacity="1"></stop>
	</linearGradient>
	<linearGradient gradientUnits="userSpaceOnUse" id="Gradient2" x1="1113.82" x2="1485.84" y1="667.929" y2="566.849">
		<stop class="stop0" offset="0" stop-color="rgb(0,0,0)" stop-opacity="1"></stop>
		<stop class="stop1" offset="1" stop-color="rgb(85,26,233)" stop-opacity="1"></stop>
	</linearGradient>
	<linearGradient gradientUnits="userSpaceOnUse" id="Gradient3" x1="1246.69" x2="1620.45" y1="1076.23" y2="1023.39">
		<stop class="stop0" offset="0" stop-color="rgb(4,0,28)" stop-opacity="1"></stop>
		<stop class="stop1" offset="1" stop-color="rgb(82,26,216)" stop-opacity="1"></stop>
	</linearGradient>
	<linearGradient gradientUnits="userSpaceOnUse" id="Gradient4" x1="1082.36" x2="1630.36" y1="1057.72" y2="584.475">
		<stop class="stop0" offset="0" stop-color="rgb(4,95,192)" stop-opacity="1"></stop>
		<stop class="stop1" offset="1" stop-color="rgb(105,206,255)" stop-opacity="0.988235"></stop>
	</linearGradient>
	<linearGradient gradientUnits="userSpaceOnUse" id="Gradient5" x1="897.58" x2="696.045" y1="973.906" y2="1203.64">
		<stop class="stop0" offset="0" stop-color="rgb(5,1,2)" stop-opacity="1"></stop>
		<stop class="stop1" offset="1" stop-color="rgb(17,2,49)" stop-opacity="1"></stop>
	</linearGradient>
	<linearGradient gradientUnits="userSpaceOnUse" id="Gradient6" x1="801.45" x2="585.672" y1="1204.91" y2="1270">
		<stop class="stop0" offset="0" stop-color="rgb(5,0,9)" stop-opacity="1"></stop>
		<stop class="stop1" offset="1" stop-color="rgb(34,5,108)" stop-opacity="1"></stop>
	</linearGradient>
	<linearGradient gradientUnits="userSpaceOnUse" id="Gradient7" x1="1044.19" x2="845.796" y1="1265.02" y2="1519.26">
		<stop class="stop0" offset="0" stop-color="rgb(7,1,11)" stop-opacity="1"></stop>
		<stop class="stop1" offset="1" stop-color="rgb(16,2,46)" stop-opacity="1"></stop>
	</linearGradient>
	<linearGradient gradientUnits="userSpaceOnUse" id="Gradient8" x1="991.072" x2="814.781" y1="1289.35" y2="1541.04">
		<stop class="stop0" offset="0" stop-color="rgb(8,1,14)" stop-opacity="1"></stop>
		<stop class="stop1" offset="1" stop-color="rgb(21,2,64)" stop-opacity="1"></stop>
	</linearGradient>
	<linearGradient gradientUnits="userSpaceOnUse" id="Gradient9" x1="1274.05" x2="1572.82" y1="1487.71" y2="1484.21">
		<stop class="stop0" offset="0" stop-color="rgb(18,0,65)" stop-opacity="1"></stop>
		<stop class="stop1" offset="1" stop-color="rgb(73,23,198)" stop-opacity="1"></stop>
	</linearGradient>
	<linearGradient gradientUnits="userSpaceOnUse" id="Gradient10" x1="1070.93" x2="964.146" y1="748.769" y2="385.914">
		<stop class="stop0" offset="0" stop-color="rgb(44,9,142)" stop-opacity="1"></stop>
		<stop class="stop1" offset="1" stop-color="rgb(87,27,209)" stop-opacity="1"></stop>
	</linearGradient>
	<linearGradient gradientUnits="userSpaceOnUse" id="Gradient11" x1="907.629" x2="792.274" y1="591.473" y2="494.121">
		<stop class="stop0" offset="0" stop-color="rgb(0,104,209)" stop-opacity="1"></stop>
		<stop class="stop1" offset="1" stop-color="rgb(72,175,243)" stop-opacity="1"></stop>
	</linearGradient>
	<linearGradient gradientUnits="userSpaceOnUse" id="Gradient12" x1="830.982" x2="750.104" y1="760.175" y2="686.596">
		<stop class="stop0" offset="0" stop-color="rgb(0,90,191)" stop-opacity="1"></stop>
		<stop class="stop1" offset="1" stop-color="rgb(23,137,229)" stop-opacity="1"></stop>
	</linearGradient>
	<linearGradient gradientUnits="userSpaceOnUse" id="Gradient13" x1="934.307" x2="785.067" y1="716.68" y2="570.85">
		<stop class="stop0" offset="0" stop-color="rgb(5,0,11)" stop-opacity="1"></stop>
		<stop class="stop1" offset="1" stop-color="rgb(58,13,175)" stop-opacity="1"></stop>
	</linearGradient>
	<linearGradient gradientUnits="userSpaceOnUse" id="Gradient14" x1="1076.48" x2="1652.75" y1="1398.64" y2="1434.48">
		<stop class="stop0" offset="0" stop-color="rgb(0,0,0)" stop-opacity="1"></stop>
		<stop class="stop1" offset="1" stop-color="rgb(84,24,232)" stop-opacity="1"></stop>
	</linearGradient>
	<linearGradient gradientUnits="userSpaceOnUse" id="Gradient15" x1="600.45" x2="589.087" y1="776.349" y2="431.6">
		<stop class="stop0" offset="0" stop-color="rgb(14,126,219)" stop-opacity="1"></stop>
		<stop class="stop1" offset="1" stop-color="rgb(78,177,242)" stop-opacity="1"></stop>
	</linearGradient>
	<linearGradient gradientUnits="userSpaceOnUse" id="Gradient16" x1="568.001" x2="382.208" y1="1021.91" y2="1062.7">
		<stop class="stop0" offset="0" stop-color="rgb(1,79,175)" stop-opacity="1"></stop>
		<stop class="stop1" offset="1" stop-color="rgb(7,112,216)" stop-opacity="1"></stop>
	</linearGradient>
	<linearGradient gradientUnits="userSpaceOnUse" id="Gradient17" x1="722.651" x2="645.802" y1="726.082" y2="653.441">
		<stop class="stop0" offset="0" stop-color="rgb(6,113,212)" stop-opacity="1"></stop>
		<stop class="stop1" offset="1" stop-color="rgb(44,152,232)" stop-opacity="1"></stop>
	</linearGradient>
	<linearGradient gradientUnits="userSpaceOnUse" id="Gradient18" x1="714.238" x2="294.614" y1="913.608" y2="858.964">
		<stop class="stop0" offset="0" stop-color="rgb(3,0,3)" stop-opacity="1"></stop>
		<stop class="stop1" offset="1" stop-color="rgb(44,10,131)" stop-opacity="1"></stop>
	</linearGradient>
</defs>
<path d="M 611.13 403.04 C 612.724 400.212 614.382 397.421 616.103 394.669 C 644.884 348.977 692.788 318.754 746.42 312.452 C 756.652 311.258 768.386 311.919 778.643 311.855 C 788.906 311.79 809.943 318.633 818.792 316.413 C 825.735 314.672 840.036 298.39 849.362 293.629 C 862.868 286.732 875.696 282.451 890.412 279.165 C 913.741 273.956 944.183 274.077 964.815 287.385 C 973.188 290.537 986.33 301.012 992.987 307.028 C 1017.88 329.523 1034.73 361.105 1043.57 393.389 C 1045.24 401.9 1047.36 408.892 1048.85 418.004 C 1052.04 437.478 1052.38 455.068 1053.61 474.377 C 1054.39 486.637 1053.29 501.015 1053.04 513.282 C 1052.97 519.17 1052.49 523.104 1052.05 528.84 C 1051.32 532.507 1050.47 537.919 1050.53 541.633 C 1049.46 550.048 1047.75 559.226 1046.2 567.602 C 1045.81 569.185 1045.47 570.777 1045.16 572.376 C 1044.03 575.75 1043.54 576.928 1043.35 580.49 C 1041.48 587.845 1039.87 595.384 1037.88 602.705 C 1035.94 607.306 1035.89 607.305 1035.1 612.452 C 1033.62 617.487 1031.19 623.915 1030.11 628.666 C 1028.86 631.505 1028.01 633.569 1026.97 636.484 L 1026 639.356 C 1025.06 641.804 1022.66 647.449 1022.33 649.633 C 1021.05 652.217 1020 654.458 1018.85 657.098 C 1011.39 674.835 1000.98 693.182 991.471 709.892 C 987.512 716.851 982.553 722.394 978.757 729.811 L 979.647 728.821 C 996.438 710.443 1010.95 684.665 1022.77 662.854 C 1023.41 661.604 1023.96 660.616 1024.45 659.289 C 1025.78 656.573 1027.15 653.873 1028.54 651.188 C 1029.61 648.093 1030.89 645.332 1031.85 642.516 C 1037.74 630.208 1047.45 603.549 1050.5 590.278 C 1052.28 584.776 1053.3 579.932 1054.71 574.445 L 1054.94 573.576 C 1056.49 574.755 1057.79 575.698 1059.43 576.792 C 1059.68 575.699 1059.93 574.607 1060.18 573.514 C 1061.42 568.844 1062.6 564.158 1063.72 559.458 C 1064.73 555.191 1065.87 550.755 1066.79 546.489 L 1067.76 541.987 C 1068.51 538.364 1069.39 533.679 1069.87 529.996 L 1070.89 522.352 C 1071.39 518.508 1073.16 494.015 1075.48 493.191 C 1090.91 487.71 1084.1 466.455 1067.76 468.68 C 1066.82 463.158 1066.42 448.494 1065.91 442 C 1064.98 431.3 1063.75 420.628 1062.22 409.996 C 1061.06 402.304 1059.75 394.635 1058.3 386.993 C 1057.71 383.818 1057.1 380.893 1056.46 377.738 C 1054.38 363.934 1049.2 341.023 1045.01 327.885 C 1079.47 379.828 1095.21 453.756 1104.68 514.105 C 1090.06 522.377 1091.36 532.895 1105 541.22 C 1103.98 618.954 1085.15 695.419 1049.96 764.734 C 1045.42 773.872 1036.64 792.04 1030.41 799.068 C 1024.97 805.206 1008.84 797.767 1013.66 820.058 L 1019.73 826.818 C 966.976 867.891 894.023 908.86 834.826 938.196 L 836.164 939.405 C 838.188 941.264 839.222 942.694 840.853 944.868 C 847.421 946.297 850.305 941.192 857.849 943.514 L 867.746 946.451 C 868.953 945.298 868.482 946.054 868.811 944.001 C 871.86 944.737 873.345 946.33 875.8 948.308 L 876.724 952.346 C 878.812 950.246 879.613 948.158 882.665 949.191 C 884.827 947.762 899.869 929.968 902.419 927.002 C 919.191 927.856 935.974 928.501 952.763 928.938 C 978.572 913.147 1004.72 895.633 1029.86 878.75 C 1043 869.928 1054.7 857.222 1065.73 845.878 C 1060.73 859.63 1029.22 882.125 1016.37 890.766 C 1016.31 890.784 1016.25 890.802 1016.18 890.819 C 1023.65 891.765 1057.1 872.754 1065.14 873.793 C 1067.24 875.594 1067.26 876.06 1069.9 876.322 C 1079.13 870.454 1100.17 841.108 1105.29 840.699 C 1117.6 827.245 1131.45 805.471 1142.96 790.034 L 1143.07 772.099 C 1141.71 754.512 1142.75 724.733 1142.82 706.361 C 1153.08 696.222 1163.23 685.974 1173.27 675.62 C 1174.09 624.201 1170.31 587.283 1160.51 537.233 C 1167.65 530.739 1173.02 519.796 1161.05 513.279 C 1156.85 510.993 1155.37 511.342 1153.59 506.641 C 1148.18 492.407 1144.23 477.971 1138.64 463.787 C 1123.11 423.649 1102.91 385.483 1078.44 350.079 C 1101.94 372.111 1150.76 439.195 1164.54 468.259 C 1168.86 475.086 1172.29 482.593 1175.99 489.778 C 1225.28 585.515 1251.92 694.883 1227.7 801.855 C 1222.48 824.326 1215.17 846.26 1205.87 867.368 C 1203.52 872.746 1194.9 890.19 1193.55 893.969 C 1191.27 907.523 1179.5 915.947 1175.91 929.06 C 1183.88 932.039 1185.75 929.899 1191.68 938.43 C 1192.09 939.022 1192.49 939.619 1192.88 940.222 L 1194.61 940.553 C 1204.12 931.759 1207.92 914.804 1216.49 909.747 C 1209.34 924.154 1199.84 938.018 1190.54 951.18 C 1185.96 957.249 1172.44 973.277 1169.47 977.869 C 1172.14 981.724 1174.49 986.092 1176.59 990.298 C 1184.55 1006.26 1193.96 1020.97 1203.55 1035.99 C 1187.63 1057.47 1172.01 1079.56 1157.94 1102.33 C 1155.92 1105.59 1149.33 1118 1146.42 1118.96 C 1164.08 1140.72 1182.89 1162.21 1198.61 1185.45 C 1202.6 1191.34 1211.18 1209.8 1216.4 1212.23 C 1207.03 1190.84 1183.86 1160.84 1168.8 1142.81 C 1185.83 1114.56 1202.26 1087.21 1222 1060.77 C 1236.28 1078.12 1252.66 1096.32 1269.02 1111.76 C 1278.45 1120.66 1290.64 1129.32 1300.12 1138.33 C 1328.21 1158.27 1346.67 1173.52 1379.19 1188.28 C 1396.28 1197.98 1418.16 1206.24 1436.74 1213.37 C 1451.78 1217.88 1467.97 1223.66 1483 1227.36 C 1535.85 1240.38 1597.45 1248.49 1651.85 1248.9 C 1654.21 1273.82 1656.38 1312.21 1659.98 1335.79 C 1612.1 1339.32 1565.14 1340.84 1518.4 1352.33 C 1513.38 1353.56 1507.66 1355.01 1502.64 1355.92 C 1502.4 1360.85 1505.05 1363.03 1508.42 1366.11 C 1510.99 1373.08 1503.82 1377.85 1509.95 1381.73 C 1525.66 1376.48 1548.89 1372.58 1565.28 1370.4 C 1582.33 1368.74 1602.53 1366.85 1619.62 1367.11 C 1627.2 1367.22 1641.93 1371.65 1650.31 1371.32 L 1651.05 1369.59 C 1653.72 1372.59 1655.84 1372.86 1659.81 1374.23 C 1665.39 1375.24 1682.24 1382.11 1687.94 1384.5 C 1700.63 1389.84 1682.64 1406.53 1679.41 1413.52 C 1666.11 1442.29 1646.64 1468.61 1633.85 1497.51 C 1632.46 1500.63 1639.89 1517.19 1639.92 1521.53 C 1644.74 1546.33 1639.41 1571.39 1624.85 1591.6 C 1596.9 1630.39 1544.08 1640.96 1499.34 1632.8 C 1491.07 1631.84 1481.68 1632.75 1473.52 1631.57 C 1445.7 1627.56 1418.54 1625.7 1390.53 1623.52 C 1360.71 1621.19 1331.35 1616.28 1301.14 1615.67 C 1290.67 1615.46 1269.28 1607.65 1258.63 1614.12 C 1248.34 1625.07 1237.26 1634.36 1226.35 1644.51 C 1172.44 1694.04 1111.76 1735.67 1046.14 1768.15 C 1041.3 1770.59 1039.71 1774.21 1033.47 1775.77 C 1029.44 1774.91 1031.09 1775.84 1028.27 1773 L 1028.38 1770.47 C 1028.58 1770.23 1028.8 1770 1029 1769.75 C 1036.61 1760.15 1040.06 1686.11 1039.64 1670.71 C 1039.18 1654.04 1036.99 1636.45 1035.09 1619.89 C 1024.87 1530.71 986.034 1441.5 914.573 1384.63 C 899.091 1383.11 883.937 1380.39 868.422 1379.84 C 858.073 1379.47 847.34 1376.83 837.124 1376.52 C 747.339 1373.86 639.116 1371.44 572.2 1302.78 C 549.258 1279.25 527.55 1244.19 527.909 1210.21 L 522.155 1204.72 C 420.67 1202.05 295.711 1154.36 272.401 1043.82 C 267.444 1020.31 265.583 999.76 274.105 976.716 C 276.294 972.756 279.163 958.571 277.442 955.837 C 243.378 901.723 246.649 829.566 281.794 776.653 C 287.83 767.565 301.852 754.476 306.333 743.432 C 309.437 733.734 307.056 723.127 308.014 713.078 C 308.679 706.107 310.969 699.585 312.306 692.861 C 324.206 632.994 365.402 580.162 420.683 554.268 C 426.986 551.315 433.468 548.246 440.576 546.932 C 446.786 541.033 447.221 540.121 449.013 531.689 C 451.485 527.626 456.748 513.751 459.395 508.341 C 481.832 462.486 521.298 430.055 569.276 413.559 C 583.117 408.8 596.389 408.329 609.606 403.597 L 611.13 403.04 z M 1054.7 1744.06 C 1054.74 1744.02 1043.09 1754.46 1043.39 1753.99 L 1043.38 1754.83 L 1042.86 1755 C 1042.82 1755.17 1042.78 1755.33 1042.74 1755.49 L 1043.36 1755.33 L 1042.87 1755.62 L 1043.06 1755.3 L 1043.5 1755.37 L 1043.53 1754.86 L 1044.41 1754.83 C 1048.72 1751.74 1053.46 1748.78 1057.21 1745.07 L 1054.7 1744.06 z M 1099.34 1669.87 L 1096.48 1670.56 C 1093.79 1673.15 1091.41 1679.2 1089.76 1682.65 C 1094.07 1678.21 1096.28 1675.33 1099.34 1669.87 z M 1057.17 1711.92 L 1055.73 1708.66 C 1055.13 1710.57 1052.16 1718.04 1053.51 1719.51 C 1053.93 1718.95 1054.35 1718.38 1054.77 1717.82 L 1054.38 1718.46 L 1054.88 1717.31 L 1057.17 1711.92 z M 1070.62 1695.44 C 1070.26 1696.35 1068.02 1701.24 1068.7 1702.3 C 1070.25 1701.85 1071.28 1698.99 1071.9 1697.76 L 1070.62 1695.44 z" fill="rgb(4,98,198)" transform="translate(0,0)"></path>
<path d="M 1057.21 1745.07 C 1053.46 1748.78 1048.72 1751.74 1044.41 1754.83 L 1043.53 1754.86 L 1043.5 1755.37 L 1043.06 1755.3 L 1042.87 1755.62 L 1043.36 1755.33 L 1042.74 1755.49 C 1042.78 1755.33 1042.82 1755.17 1042.86 1755 L 1043.38 1754.83 L 1043.39 1753.99 C 1043.09 1754.46 1054.74 1744.02 1054.7 1744.06 L 1057.21 1745.07 z" fill="rgb(10,46,114)" fill-opacity="0.988235" transform="translate(0,0)"></path>
<path d="M 665.299 632.286 C 693.04 609.8 714.995 600.533 750.962 594.853 C 758.511 593.661 770.542 592.563 778.071 593.226 C 779.884 595.363 779.452 597.973 779.786 601.433 C 779.322 613.337 779.451 622.441 779.87 634.323 C 749.492 635.423 720.878 642.422 696.777 662.192 C 709.711 671.387 723.708 706.236 729.062 720.838 C 718.296 771.321 724.486 806.362 723.213 855.589 C 699.269 866.88 692.119 872.166 664.855 880.218 C 672.599 881.033 680.893 875.909 684.84 876.745 C 671.255 887.952 658.148 896.474 650.564 912.928 C 643.528 928.193 636.973 917.724 624.48 923.03 C 631.427 924.003 638.61 923.575 645.645 923.416 C 629.865 959.533 629.836 990.294 648.789 1025.48 C 634.907 1032.82 624.81 1039.07 611.988 1048.51 C 605.027 1053.63 596.268 1061.02 589.342 1065.56 C 570.773 1083.7 559.075 1097.25 546.851 1120.11 C 538.067 1137.21 534.244 1147.42 530.161 1166.24 C 479.138 1162.02 393.293 1145.62 357.796 1106.96 C 312.833 1074.52 300.712 1018.23 319.342 967.637 C 322.413 961.581 323.137 958.641 325.023 952.133 C 274.216 882.664 290.403 816.273 349.973 758.559 L 350.089 757.802 C 360.085 748.8 387.976 723.734 398.789 718.348 C 389.939 740.281 387.907 761.444 388.053 784.753 L 431.989 784.748 C 429.948 689.567 501.101 655.247 587.04 672.22 C 586.32 669.669 585.699 667.091 585.18 664.491 L 584.123 659.492 L 582.208 650.487 C 579.355 636.63 576.762 622.223 577.517 608.03 C 613.596 607.765 633.412 614.115 664.1 631.613 L 665.299 632.286 z" fill="url(#Gradient18)" transform="translate(0,0)"></path>
<path d="M 665.299 632.286 C 693.04 609.8 714.995 600.533 750.962 594.853 C 758.511 593.661 770.542 592.563 778.071 593.226 C 779.884 595.363 779.452 597.973 779.786 601.433 C 779.322 613.337 779.451 622.441 779.87 634.323 C 749.492 635.423 720.878 642.422 696.777 662.192 C 648.801 701.026 651.735 750.4 652.059 806.558 L 608.941 806.148 C 608.197 752.879 605.294 727.128 628.608 677.176 C 629.906 676.171 636.111 665.613 637.846 662.993 C 645.887 650.844 654.411 641.892 665.299 632.286 z" fill="url(#Gradient17)" transform="translate(0,0)"></path>
<path d="M 362.882 974.842 C 377.165 974.516 391.452 974.4 405.737 974.492 C 410.161 1006.43 421.339 1034.93 447.953 1054.93 C 475.717 1075.58 510.595 1084.24 544.794 1078.99 C 546.67 1078.72 548.416 1078.46 550.26 1078.02 C 561.157 1077.37 579.027 1069.76 589.342 1065.56 C 570.773 1083.7 559.075 1097.25 546.851 1120.11 C 464.661 1124.35 399.738 1095.19 370.873 1013.85 C 366.691 998.887 364.59 990.521 362.882 974.842 z" fill="url(#Gradient16)" transform="translate(0,0)"></path>
<path d="M 485.8 766.82 L 528.881 766.782 C 528.593 804.47 540.855 838.886 571.666 862.541 C 600.05 884.333 630.625 885.207 664.855 880.218 C 672.599 881.033 680.893 875.909 684.84 876.745 C 671.255 887.952 658.148 896.474 650.564 912.928 C 643.528 928.193 636.973 917.724 624.48 923.03 C 591.202 923.262 552.699 905.295 529.652 881.739 C 498.005 849.393 486.082 811.017 485.8 766.82 z" fill="rgb(13,115,212)" transform="translate(0,0)"></path>
<path d="M 577.517 608.03 C 613.596 607.765 633.412 614.115 664.1 631.613 L 665.299 632.286 C 654.411 641.892 645.887 650.844 637.846 662.993 C 636.111 665.613 629.906 676.171 628.608 677.176 C 628.089 668.207 651.136 642.908 657.681 636.288 C 650.049 633.958 644.163 633.304 637.565 628.75 C 632.163 626.145 630.141 627.718 625.511 627.247 C 616.223 626.303 606.751 628.133 597.329 627.13 C 595.441 626.929 582.568 636.67 580.601 627.721 L 580.735 627.84 L 580.41 627.738 C 577.929 629.766 589.822 666.94 587.04 672.22 C 586.32 669.669 585.699 667.091 585.18 664.491 L 584.123 659.492 L 582.208 650.487 C 579.355 636.63 576.762 622.223 577.517 608.03 z" fill="rgb(49,10,141)" transform="translate(0,0)"></path>
<path d="M 370.782 832.11 L 398.12 832.455 C 403.889 889.051 443.408 927.702 501.292 926.048 C 511.328 956.5 529.594 973.997 561.648 978.362 C 561.607 992.979 561.729 1007.89 561.513 1022.48 C 555.383 1022.08 549.257 1021.62 543.136 1021.09 C 539.082 1020.03 535.063 1018.83 531.085 1017.51 C 503.266 1008.07 486.754 992.77 473.736 966.553 C 444.601 958.647 421.755 949.58 399.066 928.695 C 371.109 902.962 354.958 869.964 353.418 831.951 L 370.782 832.11 z" fill="rgb(13,115,212)" transform="translate(0,0)"></path>
<path d="M 611.13 403.04 C 612.724 400.212 614.382 397.421 616.103 394.669 C 644.884 348.977 692.788 318.754 746.42 312.452 C 756.652 311.258 768.386 311.919 778.643 311.855 C 788.906 311.79 809.943 318.633 818.792 316.413 C 825.735 314.672 840.036 298.39 849.362 293.629 C 862.868 286.732 875.696 282.451 890.412 279.165 C 913.741 273.956 944.183 274.077 964.815 287.385 C 973.188 290.537 986.33 301.012 992.987 307.028 C 1017.88 329.523 1034.73 361.105 1043.57 393.389 C 1045.24 401.9 1047.36 408.892 1048.85 418.004 C 1052.04 437.478 1052.38 455.068 1053.61 474.377 C 1054.39 486.637 1053.29 501.015 1053.04 513.282 C 1037.42 506.349 1023.03 504.318 1006.59 500.948 C 955.503 493.685 886.513 493.889 844.818 528.304 C 826.927 510.405 812.432 500.687 787.294 495.127 L 787.166 538.06 C 798.201 543.725 804.07 547.409 813.132 556.18 C 796.665 572.69 792.111 584.248 779.786 601.433 C 779.452 597.973 779.884 595.363 778.071 593.226 C 770.542 592.563 758.511 593.661 750.962 594.853 C 714.995 600.533 693.04 609.8 665.299 632.286 L 664.1 631.613 C 633.412 614.115 613.596 607.765 577.517 608.03 C 576.762 622.223 579.355 636.63 582.208 650.487 L 584.123 659.492 L 585.18 664.491 C 585.699 667.091 586.32 669.669 587.04 672.22 C 501.101 655.247 429.948 689.567 431.989 784.748 L 388.053 784.753 C 387.907 761.444 389.939 740.281 398.789 718.348 C 387.976 723.734 360.085 748.8 350.089 757.802 C 344.827 723.03 355.198 676.841 374.61 647.696 C 401.082 607.953 436.789 585.027 482.673 574.899 C 483.217 567.946 484.493 560.945 485.676 554.073 L 484.691 553.746 C 482.201 546.34 498.722 523.351 497.392 511.973 C 495.09 508.612 489.516 506.999 485.172 505.002 C 481.833 506.579 476.687 509.079 473.765 511.368 C 468.728 515.313 464.563 514.046 459.182 517.362 C 458.831 527.585 454.141 530.537 451.459 539.817 C 449.816 545.504 452.849 542.872 447.955 547.632 L 447.058 547.342 C 449.021 540.629 449.985 540.392 449.175 533.034 L 449.013 531.689 C 451.485 527.626 456.748 513.751 459.395 508.341 C 481.832 462.486 521.298 430.055 569.276 413.559 C 583.117 408.8 596.389 408.329 609.606 403.597 L 611.13 403.04 z" fill="rgb(76,26,198)" transform="translate(0,0)"></path>
<path d="M 611.13 403.04 C 612.724 400.212 614.382 397.421 616.103 394.669 C 644.884 348.977 692.788 318.754 746.42 312.452 C 756.652 311.258 768.386 311.919 778.643 311.855 C 788.906 311.79 809.943 318.633 818.792 316.413 C 825.735 314.672 840.036 298.39 849.362 293.629 C 862.868 286.732 875.696 282.451 890.412 279.165 C 913.741 273.956 944.183 274.077 964.815 287.385 C 973.188 290.537 986.33 301.012 992.987 307.028 C 1017.88 329.523 1034.73 361.105 1043.57 393.389 C 1045.24 401.9 1047.36 408.892 1048.85 418.004 C 1052.04 437.478 1052.38 455.068 1053.61 474.377 C 1054.39 486.637 1053.29 501.015 1053.04 513.282 C 1037.42 506.349 1023.03 504.318 1006.59 500.948 C 992.38 463.716 965.022 443.679 925.819 466.473 C 916.077 472.138 909.421 480.823 903.796 490.445 C 899.802 490.318 895.828 490.718 891.836 491.006 C 885.402 481.505 877.824 472.832 869.271 465.182 C 848.808 447.068 830.068 441.367 803.404 443.074 C 800.465 440.55 790.295 437.635 786.446 437.949 L 786.253 440.928 C 782.149 440.71 779.878 435.02 774.701 432.635 C 772.385 432.712 772.008 432.809 769.735 432.516 L 769.094 430.468 C 770.251 429.706 771.045 429.256 772.245 428.58 C 764.71 424.172 745.994 430.896 737.132 430.122 L 733.437 433.382 L 731.601 433.025 L 730.095 429.706 C 784.015 388.401 845.977 390.396 898.881 432.749 C 933.716 409.84 975.518 407.903 1009.64 433.176 C 1005.5 398.161 989.933 357.282 962.122 334.012 C 931.013 307.984 874.934 317.314 850.31 348.243 C 846.003 353.653 843.058 359.536 840.044 365.712 C 794.846 350.166 749.286 345.881 705.019 367.429 C 674.462 382.305 650.308 406.681 639.36 439.194 C 638.922 440.496 638.496 441.803 638.082 443.113 C 566.097 444.511 504.785 482.16 485.676 554.073 L 484.691 553.746 C 482.201 546.34 498.722 523.351 497.392 511.973 C 495.09 508.612 489.516 506.999 485.172 505.002 C 481.833 506.579 476.687 509.079 473.765 511.368 C 468.728 515.313 464.563 514.046 459.182 517.362 C 458.831 527.585 454.141 530.537 451.459 539.817 C 449.816 545.504 452.849 542.872 447.955 547.632 L 447.058 547.342 C 449.021 540.629 449.985 540.392 449.175 533.034 L 449.013 531.689 C 451.485 527.626 456.748 513.751 459.395 508.341 C 481.832 462.486 521.298 430.055 569.276 413.559 C 583.117 408.8 596.389 408.329 609.606 403.597 L 611.13 403.04 z" fill="rgb(77,176,239)" transform="translate(0,0)"></path>
<path d="M 803.404 443.074 C 830.068 441.367 848.808 447.068 869.271 465.182 C 877.824 472.832 885.402 481.505 891.836 491.006 C 895.828 490.718 899.802 490.318 903.796 490.445 C 909.421 480.823 916.077 472.138 925.819 466.473 C 965.022 443.679 992.38 463.716 1006.59 500.948 C 955.503 493.685 886.513 493.889 844.818 528.304 C 826.927 510.405 812.432 500.687 787.294 495.127 L 787.166 538.06 C 798.201 543.725 804.07 547.409 813.132 556.18 C 796.665 572.69 792.111 584.248 779.786 601.433 C 779.452 597.973 779.884 595.363 778.071 593.226 C 770.542 592.563 758.511 593.661 750.962 594.853 C 714.995 600.533 693.04 609.8 665.299 632.286 L 664.1 631.613 C 633.412 614.115 613.596 607.765 577.517 608.03 C 577.765 604.718 578.186 601.421 578.779 598.153 C 587.059 552.662 629.05 517.477 676.052 526.232 C 673.282 540.375 673.01 549.806 672.871 564.033 L 716.966 563.925 C 714.965 504.191 743.392 456.811 803.404 443.074 z" fill="rgb(76,26,198)" transform="translate(0,0)"></path>
<path d="M 730.095 429.706 L 731.601 433.025 L 733.437 433.382 L 737.132 430.122 C 745.994 430.896 764.71 424.172 772.245 428.58 C 771.045 429.256 770.251 429.706 769.094 430.468 L 769.735 432.516 C 772.008 432.809 772.385 432.712 774.701 432.635 C 779.878 435.02 782.149 440.71 786.253 440.928 L 786.446 437.949 C 790.295 437.635 800.465 440.55 803.404 443.074 C 743.392 456.811 714.965 504.191 716.966 563.925 L 672.871 564.033 C 673.01 549.806 673.282 540.375 676.052 526.232 C 629.05 517.477 587.059 552.662 578.779 598.153 C 578.186 601.421 577.765 604.718 577.517 608.03 C 576.762 622.223 579.355 636.63 582.208 650.487 L 584.123 659.492 L 585.18 664.491 C 585.699 667.091 586.32 669.669 587.04 672.22 C 501.101 655.247 429.948 689.567 431.989 784.748 L 388.053 784.753 C 387.907 761.444 389.939 740.281 398.789 718.348 C 403.016 707.48 408.486 697.137 415.091 687.527 C 440.118 651.409 471.982 636.093 513.728 628.485 C 512.925 628.118 512.543 628.016 511.883 627.519 L 511.925 627.519 C 515.49 624.127 530.449 618.533 535.229 616.995 C 536.273 569.92 558.177 526.216 598.754 501.175 C 625.797 484.369 658.461 479.14 689.399 486.663 C 700.849 460.768 709.74 448.797 730.095 429.706 z" fill="url(#Gradient15)" transform="translate(0,0)"></path>
<path d="M 513.728 628.485 C 512.925 628.118 512.543 628.016 511.883 627.519 L 511.925 627.519 C 515.49 624.127 530.449 618.533 535.229 616.995 C 535.213 618.124 535.523 626.023 534.481 626.192 C 528.611 627.139 519.622 627.844 513.728 628.485 z" fill="rgb(12,8,38)" transform="translate(0,0)"></path>
<path d="M 1222 1060.77 C 1236.28 1078.12 1252.66 1096.32 1269.02 1111.76 C 1278.45 1120.66 1290.64 1129.32 1300.12 1138.33 C 1328.21 1158.27 1346.67 1173.52 1379.19 1188.28 C 1396.28 1197.98 1418.16 1206.24 1436.74 1213.37 C 1451.78 1217.88 1467.97 1223.66 1483 1227.36 C 1535.85 1240.38 1597.45 1248.49 1651.85 1248.9 C 1654.21 1273.82 1656.38 1312.21 1659.98 1335.79 C 1612.1 1339.32 1565.14 1340.84 1518.4 1352.33 C 1513.38 1353.56 1507.66 1355.01 1502.64 1355.92 C 1502.4 1360.85 1505.05 1363.03 1508.42 1366.11 C 1510.99 1373.08 1503.82 1377.85 1509.95 1381.73 L 1508.48 1382.33 C 1500.24 1385.66 1490.57 1388.28 1481.96 1391.3 C 1408.18 1417.18 1343.78 1467.77 1293.88 1527.25 C 1291.33 1530.29 1286.96 1535.42 1285.17 1538.82 C 1281.97 1540.99 1263.38 1567.61 1261.92 1572.65 C 1255.94 1572.59 1239.85 1570.54 1233.19 1569.89 C 1188.07 1636.83 1120.64 1696.1 1057.21 1745.07 L 1054.7 1744.06 C 1161.99 1647.31 1258.01 1514.47 1257.46 1364 C 1257.27 1313.07 1242 1256.48 1216.4 1212.23 C 1207.03 1190.84 1183.86 1160.84 1168.8 1142.81 C 1185.83 1114.56 1202.26 1087.21 1222 1060.77 z" fill="url(#Gradient14)" transform="translate(0,0)"></path>
<path d="M 1442.2 1378.08 C 1461.73 1369.43 1481.97 1361.38 1502.64 1355.92 C 1502.4 1360.85 1505.05 1363.03 1508.42 1366.11 C 1510.99 1373.08 1503.82 1377.85 1509.95 1381.73 L 1508.48 1382.33 C 1500.24 1385.66 1490.57 1388.28 1481.96 1391.3 C 1408.18 1417.18 1343.78 1467.77 1293.88 1527.25 C 1291.33 1530.29 1286.96 1535.42 1285.17 1538.82 C 1281.97 1540.99 1263.38 1567.61 1261.92 1572.65 C 1255.94 1572.59 1239.85 1570.54 1233.19 1569.89 C 1247.79 1545.18 1266.39 1520.51 1284.85 1498.53 C 1291.55 1490.55 1300.15 1482.82 1307.23 1474.65 C 1311.31 1471.15 1316.02 1466.07 1319.91 1462.24 C 1355.94 1426.76 1397.32 1400.84 1442.2 1378.08 z" fill="rgb(76,26,198)" transform="translate(0,0)"></path>
<path d="M 787.294 495.127 C 812.432 500.687 826.927 510.405 844.818 528.304 C 886.513 493.889 955.503 493.685 1006.59 500.948 L 1007.21 506.396 C 1016.76 530.412 997.33 593.012 986.443 616.471 C 958.359 676.983 917.722 745.126 863.83 785.859 C 841.666 802.612 791.415 828.069 764.713 837.295 C 754.424 838.856 728.437 855.23 723.213 855.589 C 724.486 806.362 718.296 771.321 729.062 720.838 C 723.708 706.236 709.711 671.387 696.777 662.192 C 720.878 642.422 749.492 635.423 779.87 634.323 C 779.451 622.441 779.322 613.337 779.786 601.433 C 792.111 584.248 796.665 572.69 813.132 556.18 C 804.07 547.409 798.201 543.725 787.166 538.06 L 787.294 495.127 z" fill="url(#Gradient13)" transform="translate(0,0)"></path>
<path d="M 866.655 641.003 C 875.857 641.056 905.011 641.725 912.776 640.033 C 904.827 674.902 886.815 703.672 856.263 722.81 C 825.843 741.865 799.854 744.382 765.195 743.942 C 764.007 775.046 763.846 806.18 764.713 837.295 C 754.424 838.856 728.437 855.23 723.213 855.589 C 724.486 806.362 718.296 771.321 729.062 720.838 C 731.364 711.939 733.236 705.927 736.368 697.284 C 738.644 697.93 740.944 698.49 743.262 698.964 C 792.229 709.211 855.103 698.172 866.655 641.003 z" fill="url(#Gradient12)" transform="translate(0,0)"></path>
<path d="M 787.294 495.127 C 812.432 500.687 826.927 510.405 844.818 528.304 C 850.381 534.788 854.212 539.723 859.202 546.666 C 882.723 539.795 896.507 540.002 921.109 540.105 C 921.222 550.059 920.896 572.292 921.964 581.238 C 911.819 581.06 904.962 581.358 894.83 582.169 C 877.159 583.289 857.758 590.505 843.149 600.433 C 835.176 582.491 826.499 570.352 813.132 556.18 C 804.07 547.409 798.201 543.725 787.166 538.06 L 787.294 495.127 z" fill="url(#Gradient11)" transform="translate(0,0)"></path>
<path d="M 1078.44 350.079 C 1101.94 372.111 1150.76 439.195 1164.54 468.259 C 1168.86 475.086 1172.29 482.593 1175.99 489.778 C 1225.28 585.515 1251.92 694.883 1227.7 801.855 C 1222.48 824.326 1215.17 846.26 1205.87 867.368 C 1203.52 872.746 1194.9 890.19 1193.55 893.969 C 1158.63 949.556 1130.87 986.902 1073.88 1024.22 C 1064.17 1030.58 1048.47 1040.66 1038.2 1045.15 C 1024.35 1040.73 1011.07 1035.32 997.24 1030.82 C 977.814 1024.51 958.699 1020.07 938.913 1015.39 C 1065.03 971.259 1149.88 902.35 1193.49 773.724 C 1198.53 772.358 1203.82 769.485 1205.54 765.244 C 1215.24 741.284 1168.91 736.675 1180.02 765.929 C 1181.08 768.707 1184.75 770.243 1183.05 774.975 C 1181.26 780.978 1178.59 787.893 1176.36 793.783 C 1158.18 840.977 1129.67 883.507 1092.92 918.262 C 1088.05 922.856 1076.25 933.582 1070.93 936.953 C 1069.99 936.927 1069.05 936.902 1068.11 936.877 C 1058.09 943.907 1046.19 952.688 1036.04 958.975 C 1001.98 980.066 961.244 998.153 922.951 1009.38 C 913.453 1011.16 902.328 1007.69 892.937 1006.97 C 866.449 1004.92 840.368 1002.13 813.792 1001.84 C 806.081 1001.75 796.918 1003.44 789.469 1002.57 L 790.095 1001.87 C 808.148 994.33 871.102 988.561 891.169 989.28 C 899.191 982.635 904.682 972.471 913.707 965.79 C 933.865 964.971 942.383 963.441 954.165 976.875 C 958.005 981.253 973.748 974.87 975.238 967.108 C 978.852 963.771 972.951 951 972.86 951.153 C 975.293 947.074 1018.35 926.658 1020.95 918.37 C 1023.04 916.182 1041.38 903.307 1045.27 900.348 C 1065.43 884.999 1091.32 861.648 1105.29 840.699 C 1117.6 827.245 1131.45 805.471 1142.96 790.034 L 1143.07 772.099 C 1141.71 754.512 1142.75 724.733 1142.82 706.361 C 1153.08 696.222 1163.23 685.974 1173.27 675.62 C 1174.09 624.201 1170.31 587.283 1160.51 537.233 C 1167.65 530.739 1173.02 519.796 1161.05 513.279 C 1156.85 510.993 1155.37 511.342 1153.59 506.641 C 1148.18 492.407 1144.23 477.971 1138.64 463.787 C 1123.11 423.649 1102.91 385.483 1078.44 350.079 z" fill="rgb(24,3,72)" transform="translate(0,0)"></path>
<path d="M 1078.44 350.079 C 1101.94 372.111 1150.76 439.195 1164.54 468.259 C 1154.27 461.341 1121.49 394.623 1107.77 389.64 C 1107.89 395.781 1117.49 411.856 1120.45 417.794 C 1133.79 444.515 1147.96 479.79 1155.66 508.311 C 1165.67 512.04 1172.48 517.156 1168.75 528.919 C 1167.71 532.195 1162.36 538.443 1163.06 541.556 C 1171.15 577.631 1174.54 615.397 1175.03 652.338 C 1175.14 660.194 1174.86 668.211 1175.41 675.88 L 1174.44 677.003 C 1169.54 682.627 1147.66 703.305 1146.18 706.593 C 1141 718.083 1146.37 759.4 1143.07 772.099 C 1141.71 754.512 1142.75 724.733 1142.82 706.361 C 1153.08 696.222 1163.23 685.974 1173.27 675.62 C 1174.09 624.201 1170.31 587.283 1160.51 537.233 C 1167.65 530.739 1173.02 519.796 1161.05 513.279 C 1156.85 510.993 1155.37 511.342 1153.59 506.641 C 1148.18 492.407 1144.23 477.971 1138.64 463.787 C 1123.11 423.649 1102.91 385.483 1078.44 350.079 z" fill="rgb(49,10,141)" transform="translate(0,0)"></path>
<path d="M 1045.01 327.885 C 1079.47 379.828 1095.21 453.756 1104.68 514.105 C 1090.06 522.377 1091.36 532.895 1105 541.22 C 1103.98 618.954 1085.15 695.419 1049.96 764.734 C 1045.42 773.872 1036.64 792.04 1030.41 799.068 C 1024.97 805.206 1008.84 797.767 1013.66 820.058 L 1019.73 826.818 C 966.976 867.891 894.023 908.86 834.826 938.196 C 803.605 953.304 772.809 967.644 740.715 980.813 C 734.553 983.342 740.745 990.5 726.497 995.966 L 726.353 998.592 C 714.472 1002.49 703.098 1007.55 691.585 1012.44 C 671.005 983.073 671.29 956.28 691.577 926.27 C 698.687 915.751 713.895 904.102 724.957 898.221 C 730.768 893.633 737.514 890.135 744.05 886.718 C 762.134 876.336 790.534 867.138 810.289 857.185 C 858.341 832.975 902.043 804.726 942.883 769.995 C 944.484 767.24 950.307 761.904 952.945 759.099 C 961.349 750.163 972.236 740.121 978.757 729.811 L 979.647 728.821 C 996.438 710.443 1010.95 684.665 1022.77 662.854 C 1023.41 661.604 1023.96 660.616 1024.45 659.289 C 1025.78 656.573 1027.15 653.873 1028.54 651.188 C 1029.61 648.093 1030.89 645.332 1031.85 642.516 C 1037.74 630.208 1047.45 603.549 1050.5 590.278 C 1052.28 584.776 1053.3 579.932 1054.71 574.445 L 1054.94 573.576 C 1056.49 574.755 1057.79 575.698 1059.43 576.792 C 1059.68 575.699 1059.93 574.607 1060.18 573.514 C 1061.42 568.844 1062.6 564.158 1063.72 559.458 C 1064.73 555.191 1065.87 550.755 1066.79 546.489 L 1067.76 541.987 C 1068.51 538.364 1069.39 533.679 1069.87 529.996 L 1070.89 522.352 C 1071.39 518.508 1073.16 494.015 1075.48 493.191 C 1090.91 487.71 1084.1 466.455 1067.76 468.68 C 1066.82 463.158 1066.42 448.494 1065.91 442 C 1064.98 431.3 1063.75 420.628 1062.22 409.996 C 1061.06 402.304 1059.75 394.635 1058.3 386.993 C 1057.71 383.818 1057.1 380.893 1056.46 377.738 C 1054.38 363.934 1049.2 341.023 1045.01 327.885 z" fill="rgb(24,3,72)" transform="translate(0,0)"></path>
<path d="M 1045.01 327.885 C 1079.47 379.828 1095.21 453.756 1104.68 514.105 C 1090.06 522.377 1091.36 532.895 1105 541.22 C 1103.98 618.954 1085.15 695.419 1049.96 764.734 C 1045.42 773.872 1036.64 792.04 1030.41 799.068 C 1024.97 805.206 1008.84 797.767 1013.66 820.058 C 1007.2 825.428 993.859 836.423 986.871 840.414 C 992.78 830.921 1006.36 827.277 1011.45 817.747 C 1011.51 816.327 1011.3 808.837 1012 807.921 C 1024.39 791.714 1030.66 805.34 1039.67 780.208 C 1044.07 767.95 1058.87 745.141 1062.99 733.837 C 1067.9 720.374 1097.61 640.502 1091.76 632.439 C 1086.33 632.967 1091.01 633.574 1085.71 636.626 C 1083.12 633.94 1080.48 631.308 1077.79 628.732 C 1071.89 631.462 1067.21 658.564 1061.84 662.907 L 1060.58 661.793 C 1058.54 666.767 1056.27 665.718 1051.23 666.613 L 1049.99 668.524 C 1055.54 673.939 1067.64 682.102 1061.66 692.409 C 1058.32 698.162 1051.58 700.086 1045.53 701.922 C 1040.5 709.39 1033.56 722.656 1028.4 731.014 C 1017.88 748.03 978.25 800.881 961.789 805.789 C 921.997 834.806 900.423 850.205 851.965 867.453 C 843.74 870.381 811.154 880.229 806.299 882.411 C 787.735 887.314 743.918 897.424 724.957 898.221 C 730.768 893.633 737.514 890.135 744.05 886.718 C 762.134 876.336 790.534 867.138 810.289 857.185 C 858.341 832.975 902.043 804.726 942.883 769.995 C 944.484 767.24 950.307 761.904 952.945 759.099 C 961.349 750.163 972.236 740.121 978.757 729.811 L 979.647 728.821 C 996.438 710.443 1010.95 684.665 1022.77 662.854 C 1023.41 661.604 1023.96 660.616 1024.45 659.289 C 1025.78 656.573 1027.15 653.873 1028.54 651.188 C 1029.61 648.093 1030.89 645.332 1031.85 642.516 C 1037.74 630.208 1047.45 603.549 1050.5 590.278 C 1052.28 584.776 1053.3 579.932 1054.71 574.445 L 1054.94 573.576 C 1056.49 574.755 1057.79 575.698 1059.43 576.792 C 1059.68 575.699 1059.93 574.607 1060.18 573.514 C 1061.42 568.844 1062.6 564.158 1063.72 559.458 C 1064.73 555.191 1065.87 550.755 1066.79 546.489 L 1067.76 541.987 C 1068.51 538.364 1069.39 533.679 1069.87 529.996 L 1070.89 522.352 C 1071.39 518.508 1073.16 494.015 1075.48 493.191 C 1090.91 487.71 1084.1 466.455 1067.76 468.68 C 1066.82 463.158 1066.42 448.494 1065.91 442 C 1064.98 431.3 1063.75 420.628 1062.22 409.996 C 1061.06 402.304 1059.75 394.635 1058.3 386.993 C 1057.71 383.818 1057.1 380.893 1056.46 377.738 C 1054.38 363.934 1049.2 341.023 1045.01 327.885 z" fill="url(#Gradient10)" transform="translate(0,0)"></path>
<path d="M 983.689 772.777 L 985.414 772.912 C 993.588 765.979 1003.53 750.222 1010.51 741.697 C 1011.95 743.621 1012.32 743.896 1014.54 744.805 L 1013.88 745.586 C 1007.1 753.671 1001.55 762.587 994.647 770.607 C 992.171 773.483 986.117 778.268 985.319 781.112 L 986.646 781.322 C 978.559 791.146 968.724 797.85 961.789 805.789 C 921.997 834.806 900.423 850.205 851.965 867.453 C 843.74 870.381 811.154 880.229 806.299 882.411 C 787.735 887.314 743.918 897.424 724.957 898.221 C 730.768 893.633 737.514 890.135 744.05 886.718 C 762.134 876.336 790.534 867.138 810.289 857.185 C 858.341 832.975 902.043 804.726 942.883 769.995 L 944.749 769.951 C 949.634 765.626 960.063 753.741 963.447 752.001 C 964.372 753.7 964.251 753.082 964.294 755.107 C 964.48 763.938 971.984 769.851 975.18 776.017 C 970.934 786.598 954.851 794.645 949.07 804.78 C 961.406 795.794 972.652 783.47 983.689 772.777 z" fill="rgb(24,3,72)" transform="translate(0,0)"></path>
<path d="M 983.689 772.777 L 985.414 772.912 C 993.588 765.979 1003.53 750.222 1010.51 741.697 C 1011.95 743.621 1012.32 743.896 1014.54 744.805 L 1013.88 745.586 C 1007.1 753.671 1001.55 762.587 994.647 770.607 C 992.171 773.483 986.117 778.268 985.319 781.112 L 986.646 781.322 C 978.559 791.146 968.724 797.85 961.789 805.789 C 921.997 834.806 900.423 850.205 851.965 867.453 C 843.74 870.381 811.154 880.229 806.299 882.411 C 787.735 887.314 743.918 897.424 724.957 898.221 C 730.768 893.633 737.514 890.135 744.05 886.718 C 761.075 885.852 791.386 878.359 807.765 873.58 C 861.142 858.006 905.227 839.591 949.07 804.78 C 961.406 795.794 972.652 783.47 983.689 772.777 z" fill="rgb(76,26,198)" transform="translate(0,0)"></path>
<path d="M 1035.93 694.946 C 1033.12 690.093 1031.4 686.7 1033.06 681.006 C 1034.08 677.41 1036.55 674.399 1039.88 672.685 C 1052.46 666.262 1064.58 679.062 1059.92 691.641 C 1057.96 696.958 1046.54 697.296 1043.67 701.544 C 1029.93 725.205 1015.57 748.514 997.77 769.393 C 995.33 772.254 989.502 779.142 986.646 781.322 L 985.319 781.112 C 986.117 778.268 992.171 773.483 994.647 770.607 C 1001.55 762.587 1007.1 753.671 1013.88 745.586 L 1014.54 744.805 C 1012.32 743.896 1011.95 743.621 1010.51 741.697 C 1003.53 750.222 993.588 765.979 985.414 772.912 L 983.689 772.777 C 1006.41 746.504 1020.25 726.16 1035.93 694.946 z" fill="rgb(13,115,212)" transform="translate(0,0)"></path>
<path d="M 1044.14 680.583 C 1045.69 679.707 1047.59 679.747 1049.1 680.687 C 1050.61 681.627 1051.48 683.317 1051.38 685.093 C 1051.28 686.868 1050.21 688.446 1048.6 689.204 C 1046.24 690.319 1043.42 689.364 1042.22 687.044 C 1041.02 684.724 1041.87 681.87 1044.14 680.583 z" fill="rgb(49,10,141)" transform="translate(0,0)"></path>
<path d="M 1054.94 573.576 C 1056.49 574.755 1057.79 575.698 1059.43 576.792 C 1053.4 594.959 1040.24 636.781 1028.54 651.188 C 1029.61 648.093 1030.89 645.332 1031.85 642.516 C 1037.74 630.208 1047.45 603.549 1050.5 590.278 C 1052.28 584.776 1053.3 579.932 1054.71 574.445 L 1054.94 573.576 z" fill="rgb(35,145,238)" transform="translate(0,0)"></path>
<path d="M 986.871 840.414 C 993.859 836.423 1007.2 825.428 1013.66 820.058 L 1019.73 826.818 C 966.976 867.891 894.023 908.86 834.826 938.196 C 803.605 953.304 772.809 967.644 740.715 980.813 C 734.553 983.342 740.745 990.5 726.497 995.966 C 719.19 995.247 712.557 992.249 711.129 984.333 C 710.402 980.224 711.49 976.001 714.114 972.755 C 716.281 970.085 719.446 968.418 722.874 968.139 C 728.453 967.639 732.175 970.276 736.095 973.715 C 776.63 956.421 826.213 935.351 864.91 913.705 C 875.095 909.322 888.898 901.063 898.769 895.508 C 928.928 878.44 958.324 860.058 986.871 840.414 z" fill="rgb(76,26,198)" transform="translate(0,0)"></path>
<path d="M 721.948 977.552 C 723.542 976.631 725.513 976.661 727.078 977.63 C 728.642 978.599 729.548 980.35 729.434 982.187 C 729.321 984.023 728.207 985.649 726.535 986.418 C 724.109 987.533 721.236 986.545 720.01 984.174 C 718.783 981.803 719.637 978.887 721.948 977.552 z" fill="rgb(8,1,14)" transform="translate(0,0)"></path>
<path d="M 806.299 882.411 L 808.15 883.187 C 802.546 886.948 793.707 886.834 787.984 888.692 C 767.054 895.486 744.751 896.052 723.98 901.757 C 718.279 903.323 701.953 919.092 700.493 924.566 C 702.17 926.41 701.453 925.881 703.715 926.846 C 703.307 931.386 699.205 931.815 699.143 933.063 C 699.039 935.162 699.944 952.976 700.174 954.235 C 701.421 961.051 710.015 964.4 708.695 974.272 C 714.507 970.338 713.936 964.175 723.469 966.234 C 722.087 965.935 738.022 969.909 737.304 970.169 C 780.341 954.612 822.23 933.361 863.042 912.645 C 863.665 912.998 864.288 913.352 864.91 913.705 C 826.213 935.351 776.63 956.421 736.095 973.715 C 732.175 970.276 728.453 967.639 722.874 968.139 C 719.446 968.418 716.281 970.085 714.114 972.755 C 711.49 976.001 710.402 980.224 711.129 984.333 C 712.557 992.249 719.19 995.247 726.497 995.966 L 726.353 998.592 C 714.472 1002.49 703.098 1007.55 691.585 1012.44 C 671.005 983.073 671.29 956.28 691.577 926.27 C 698.687 915.751 713.895 904.102 724.957 898.221 C 743.918 897.424 787.735 887.314 806.299 882.411 z" fill="rgb(8,1,14)" transform="translate(0,0)"></path>
<path d="M 715.146 925.36 C 720.098 928.063 717.448 930.27 714.432 934.341 C 710.589 931.24 712.579 928.952 715.146 925.36 z" fill="rgb(8,1,14)" transform="translate(0,0)"></path>
<path d="M 1509.95 1381.73 C 1525.66 1376.48 1548.89 1372.58 1565.28 1370.4 C 1563.55 1376.56 1561.89 1377.43 1556.52 1381.29 C 1551.16 1408.71 1543.33 1426.39 1554.3 1455.18 C 1567.5 1489.81 1555.19 1530.86 1564.29 1566.51 C 1564.68 1568.01 1571.88 1573.15 1571.28 1575.49 C 1571.71 1580.5 1573.26 1583.79 1575.74 1587.83 C 1547.99 1602.67 1529.61 1597.96 1499.48 1595.11 L 1428.03 1588.13 L 1332.38 1579.35 C 1317.11 1577.88 1298.39 1576.47 1283.53 1574.07 C 1277.52 1574.2 1268.48 1573.04 1261.92 1572.65 C 1263.38 1567.61 1281.97 1540.99 1285.17 1538.82 C 1286.96 1535.42 1291.33 1530.29 1293.88 1527.25 C 1343.78 1467.77 1408.18 1417.18 1481.96 1391.3 C 1490.57 1388.28 1500.24 1385.66 1508.48 1382.33 L 1509.95 1381.73 z" fill="url(#Gradient9)" transform="translate(0,0)"></path>
<path d="M 1261.92 1572.65 C 1263.38 1567.61 1281.97 1540.99 1285.17 1538.82 C 1284.68 1538.38 1286.07 1539.76 1286.1 1539.68 C 1284.91 1543.15 1280.92 1547.21 1278.72 1550.86 C 1276.91 1553.86 1276.12 1552.68 1275.74 1557.26 C 1275.62 1560.11 1276.97 1562.29 1276.73 1565.47 C 1276.64 1566.78 1275.13 1570.68 1276.36 1571.38 C 1279.71 1573.26 1288.8 1572.15 1291.21 1573.23 L 1291.35 1573.5 C 1291.24 1573.84 1284.28 1574.01 1283.53 1574.07 C 1277.52 1574.2 1268.48 1573.04 1261.92 1572.65 z" fill="rgb(12,8,38)" transform="translate(0,0)"></path>
<path d="M 449.013 531.689 L 449.175 533.034 C 449.985 540.392 449.021 540.629 447.058 547.342 L 447.955 547.632 C 452.849 542.872 449.816 545.504 451.459 539.817 C 454.141 530.537 458.831 527.585 459.182 517.362 C 464.563 514.046 468.728 515.313 473.765 511.368 C 476.687 509.079 481.833 506.579 485.172 505.002 C 489.516 506.999 495.09 508.612 497.392 511.973 C 498.722 523.351 482.201 546.34 484.691 553.746 L 485.676 554.073 C 484.493 560.945 483.217 567.946 482.673 574.899 C 436.789 585.027 401.082 607.953 374.61 647.696 C 355.198 676.841 344.827 723.03 350.089 757.802 L 349.973 758.559 C 290.403 816.273 274.216 882.664 325.023 952.133 C 323.137 958.641 322.413 961.581 319.342 967.637 C 308.124 980.211 307.975 1007.98 308.926 1024 C 310.915 1057.5 329.144 1085.16 353.788 1106.82 C 397.859 1145.56 443.586 1155.9 499.147 1164.93 C 508.448 1166.45 519.817 1167.31 528.573 1168.93 C 527.29 1180.98 525.703 1188.94 526 1201.16 C 521.086 1200.83 516.463 1200.52 510.999 1199.91 C 485.411 1197.09 459.447 1192.83 434.813 1187.14 C 426.671 1185.26 423.147 1178.85 411.399 1180.9 C 410.245 1180.95 409.261 1177.49 408.74 1177.33 C 353.559 1160.28 305.998 1120.2 282.997 1066.97 C 279.339 1058.5 282.429 1048.19 275.236 1041.22 C 273.449 1022.26 275.813 992.832 274.105 976.716 C 276.294 972.756 279.163 958.571 277.442 955.837 C 243.378 901.723 246.649 829.566 281.794 776.653 C 287.83 767.565 301.852 754.476 306.333 743.432 C 309.437 733.734 307.056 723.127 308.014 713.078 C 308.679 706.107 310.969 699.585 312.306 692.861 C 324.206 632.994 365.402 580.162 420.683 554.268 C 426.986 551.315 433.468 548.246 440.576 546.932 C 446.786 541.033 447.221 540.121 449.013 531.689 z" fill="rgb(13,115,212)" transform="translate(0,0)"></path>
<path d="M 1565.28 1370.4 C 1582.33 1368.74 1602.53 1366.85 1619.62 1367.11 C 1627.2 1367.22 1641.93 1371.65 1650.31 1371.32 L 1651.05 1369.59 C 1653.72 1372.59 1655.84 1372.86 1659.81 1374.23 C 1655.84 1376.25 1645.55 1397.85 1642.62 1403.24 L 1590.68 1498.39 C 1601.55 1512.92 1606.62 1526.19 1604.17 1544.99 C 1602.07 1561.06 1590.01 1579.88 1575.74 1587.83 C 1573.26 1583.79 1571.71 1580.5 1571.28 1575.49 C 1571.88 1573.15 1564.68 1568.01 1564.29 1566.51 C 1555.19 1530.86 1567.5 1489.81 1554.3 1455.18 C 1543.33 1426.39 1551.16 1408.71 1556.52 1381.29 C 1561.89 1377.43 1563.55 1376.56 1565.28 1370.4 z" fill="rgb(76,26,198)" transform="translate(0,0)"></path>
<path d="M 1169.47 977.869 C 1172.14 981.724 1174.49 986.092 1176.59 990.298 C 1184.55 1006.26 1193.96 1020.97 1203.55 1035.99 C 1187.63 1057.47 1172.01 1079.56 1157.94 1102.33 C 1155.92 1105.59 1149.33 1118 1146.42 1118.96 C 1126.89 1097.78 1093.62 1075.07 1068.91 1060.77 C 1108.3 1037.92 1139.91 1012.38 1169.47 977.869 z" fill="rgb(8,1,14)" transform="translate(0,0)"></path>
<path d="M 726.497 995.966 C 740.745 990.5 734.553 983.342 740.715 980.813 C 772.809 967.644 803.605 953.304 834.826 938.196 L 836.164 939.405 C 838.188 941.264 839.222 942.694 840.853 944.868 C 847.421 946.297 850.305 941.192 857.849 943.514 L 867.746 946.451 C 868.953 945.298 868.482 946.054 868.811 944.001 C 871.86 944.737 873.345 946.33 875.8 948.308 L 876.724 952.346 C 878.812 950.246 879.613 948.158 882.665 949.191 C 877.969 954.833 873.759 959.684 868.764 965.057 C 820.368 965.835 771.226 982.263 726.353 998.592 L 726.497 995.966 z" fill="rgb(8,1,14)" transform="translate(0,0)"></path>
<path d="M 1020.95 918.37 C 1018.35 926.658 975.293 947.074 972.86 951.153 C 972.951 951 978.852 963.771 975.238 967.108 C 973.748 974.87 958.005 981.253 954.165 976.875 C 942.383 963.441 933.865 964.971 913.707 965.79 C 904.682 972.471 899.191 982.635 891.169 989.28 C 871.102 988.561 808.148 994.33 790.095 1001.87 L 789.469 1002.57 C 796.918 1003.44 806.081 1001.75 813.792 1001.84 C 840.368 1002.13 866.449 1004.92 892.937 1006.97 C 902.328 1007.69 913.453 1011.16 922.951 1009.38 C 961.244 998.153 1001.98 980.066 1036.04 958.975 C 1046.19 952.688 1058.09 943.907 1068.11 936.877 C 1069.05 936.902 1069.99 936.927 1070.93 936.953 C 1031.37 969.13 972.114 997.603 922.355 1011.37 C 918.166 1012.53 910.214 1010.92 905.798 1010.78 C 874.551 1007.2 801.794 999.613 772.289 1006.4 L 770.944 1004.96 C 807.502 993.745 852.397 986.504 890.548 986.878 C 897.652 979.684 905.883 970.253 912.808 962.693 C 923.71 963.802 935.122 964.253 946.098 964.854 C 948.755 969.988 950.552 973.23 956.536 974.989 C 960.226 976.092 964.213 975.538 967.464 973.472 C 976.663 967.511 974.486 957.611 968.949 950.022 C 987.234 940.197 1003.58 929.704 1020.95 918.37 z" fill="rgb(12,8,38)" transform="translate(0,0)"></path>
<path d="M 772.289 1006.4 C 771.417 1006.61 767.264 1007.71 766.601 1006.47 C 766.746 1005.23 770.136 1005.07 770.944 1004.96 L 772.289 1006.4 z" fill="rgb(10,46,114)" transform="translate(0,0)"></path>
<path d="M 724.704 1176.87 C 728.396 1174.9 743.16 1172.38 747.842 1171.47 L 749.759 1172.1 C 760.103 1175.45 777.656 1178.6 789.278 1181.85 C 819.717 1190.52 849.477 1201.42 878.315 1214.46 C 881.896 1216.08 899.692 1224.37 902.106 1226.39 L 900.489 1227.23 C 895.946 1225.39 880.598 1217.73 878.092 1217.74 C 875.988 1218.89 876.359 1218.18 875.45 1219.83 L 876.8 1220.43 C 881.449 1222.56 897.847 1229.23 898.953 1233.15 C 927.458 1248.08 959.984 1266.2 986.984 1283.87 C 987.002 1298.99 986.839 1312.71 988.091 1327.77 C 1032.97 1366.03 1072.58 1426.46 1087.97 1483.36 C 1091.49 1496.37 1092.77 1508 1094.21 1521.27 C 1081.08 1529.83 1079.51 1539.87 1093.22 1549.04 C 1091.35 1593.85 1083.58 1629.73 1070.58 1672.73 C 1067.51 1682.88 1059.27 1703.19 1057.17 1711.92 L 1055.73 1708.66 C 1065 1684.48 1067.68 1654.22 1067.97 1628.44 C 1069.23 1518.35 1013.11 1411.68 925.256 1346.13 C 882.657 1314.34 834.002 1291.27 785.346 1270.39 C 768.911 1263.34 711.537 1245.21 702.749 1236.04 C 702.505 1235.79 702.27 1235.53 702.03 1235.27 C 698.782 1231.8 697.602 1230.11 694.935 1226.15 C 684.243 1204.15 701.345 1176.97 724.704 1176.87 z" fill="url(#Gradient8)" transform="translate(0,0)"></path>
<path d="M 694.935 1226.15 C 776.067 1232.13 856.472 1251.24 924.716 1297.13 C 933.392 1302.97 952.264 1314.65 958.387 1322.01 C 959.407 1324.24 962.02 1327.3 961.521 1329.01 C 960.376 1332.94 957.566 1328.63 957.022 1328.59 C 956.527 1328.83 955.923 1329.5 955.56 1329.85 C 954.544 1329 953.521 1328.16 952.491 1327.32 C 892.916 1279.06 824.222 1251.52 748.877 1240.26 C 738.016 1238.64 712.477 1234.19 702.03 1235.27 C 698.782 1231.8 697.602 1230.11 694.935 1226.15 z" fill="rgb(76,26,198)" transform="translate(0,0)"></path>
<path d="M 724.704 1176.87 C 728.396 1174.9 743.16 1172.38 747.842 1171.47 L 749.759 1172.1 C 760.103 1175.45 777.656 1178.6 789.278 1181.85 C 819.717 1190.52 849.477 1201.42 878.315 1214.46 C 881.896 1216.08 899.692 1224.37 902.106 1226.39 L 900.489 1227.23 C 895.946 1225.39 880.598 1217.73 878.092 1217.74 C 875.988 1218.89 876.359 1218.18 875.45 1219.83 L 876.8 1220.43 C 881.449 1222.56 897.847 1229.23 898.953 1233.15 C 828.853 1201.25 800.788 1189.33 724.704 1176.87 z" fill="rgb(76,26,198)" transform="translate(0,0)"></path>
<path d="M 958.387 1322.01 C 960.047 1323.13 964.748 1327.45 966.474 1327.16 C 997.888 1321.92 983.126 1366.88 962.939 1351.16 C 959.92 1348.81 958.034 1345.29 957.746 1341.48 C 956.977 1331.87 962.433 1337.68 955.56 1329.85 C 955.923 1329.5 956.527 1328.83 957.022 1328.59 C 957.566 1328.63 960.376 1332.94 961.521 1329.01 C 962.02 1327.3 959.407 1324.24 958.387 1322.01 z" fill="rgb(76,26,198)" transform="translate(0,0)"></path>
<path d="M 970.215 1335.35 C 972.801 1334.88 975.301 1336.52 975.911 1339.07 C 976.521 1341.63 975.029 1344.22 972.51 1344.97 C 970.752 1345.49 968.848 1345 967.562 1343.69 C 966.277 1342.38 965.82 1340.47 966.376 1338.72 C 966.932 1336.97 968.409 1335.68 970.215 1335.35 z" fill="rgb(8,1,14)" transform="translate(0,0)"></path>
<path d="M 747.842 1171.47 C 764.142 1167.63 780.403 1163.63 796.623 1159.47 C 805.205 1157.23 822.261 1152.3 830.373 1151.48 C 840.557 1150.46 868.954 1157.42 877.405 1162.85 C 890.172 1171.06 898.785 1181.96 913.368 1188.84 C 923.904 1193.82 960.212 1197.53 967.192 1202.91 C 980.745 1213.36 1000.29 1233.29 1013.4 1245.95 L 1107.21 1336.09 L 1107.28 1405.72 C 1119.32 1418.05 1136.84 1435.04 1147.1 1448.14 C 1152.16 1535.48 1115.16 1623.91 1071.9 1697.76 L 1070.62 1695.44 C 1087.47 1657.37 1099.05 1591.42 1101.39 1550.04 C 1114.25 1540.06 1116.17 1531.71 1101.45 1522 C 1101.4 1519.45 1101.31 1516.89 1101.19 1514.34 C 1097.79 1445.86 1046.33 1368.79 996.637 1323.56 C 995.427 1308.2 995.082 1294.55 994.805 1279.12 C 972.733 1264.38 926.159 1236.59 902.106 1226.39 C 899.692 1224.37 881.896 1216.08 878.315 1214.46 C 849.477 1201.42 819.717 1190.52 789.278 1181.85 C 777.656 1178.6 760.103 1175.45 749.759 1172.1 L 747.842 1171.47 z" fill="url(#Gradient7)" transform="translate(0,0)"></path>
<path d="M 590.127 1119.73 C 593.986 1119.15 614.748 1108.89 621.282 1106.44 C 650.234 1095.59 689.657 1086.13 720.535 1090.75 C 726.894 1091.71 750.687 1102.7 757.305 1105.62 C 766.279 1100.51 778.3 1102.04 780.268 1113.96 C 779.141 1117.57 778.284 1119.36 778.571 1123.16 C 775.709 1127.86 772.506 1128.5 767.733 1130.4 L 767.207 1131.89 C 732.438 1138.82 686.149 1142.59 665.187 1174.59 C 643.665 1207.44 655.774 1250.44 688.855 1270.28 C 709.417 1282.6 732.79 1288.76 755.157 1297.55 C 786.575 1309.61 817.233 1323.57 846.962 1339.34 C 817.1 1336.07 787.258 1336.14 757.164 1333.89 C 733.975 1332.15 718.311 1328.23 696.265 1323.38 C 653.971 1314.09 620.789 1303.08 592.269 1268.21 C 571.7 1243.06 563.81 1210.13 567.426 1178.12 C 568.516 1168.47 572.919 1146.44 579.388 1138.95 C 582.772 1131.51 585.778 1126.63 590.127 1119.73 z" fill="url(#Gradient6)" transform="translate(0,0)"></path>
<path d="M 590.127 1119.73 C 593.986 1119.15 614.748 1108.89 621.282 1106.44 C 650.234 1095.59 689.657 1086.13 720.535 1090.75 C 726.894 1091.71 750.687 1102.7 757.305 1105.62 C 766.279 1100.51 778.3 1102.04 780.268 1113.96 C 779.141 1117.57 778.284 1119.36 778.571 1123.16 C 775.709 1127.86 772.506 1128.5 767.733 1130.4 L 766.443 1130.07 C 752.474 1126.46 756.899 1122.29 751.729 1113.26 C 750.809 1111.65 727.646 1100.68 725.29 1100.23 C 677.623 1091.11 617.238 1111.32 579.388 1138.95 C 582.772 1131.51 585.778 1126.63 590.127 1119.73 z" fill="rgb(76,26,198)" transform="translate(0,0)"></path>
<path d="M 766.417 1111.21 C 768.924 1111.05 771.171 1112.75 771.696 1115.2 C 772.221 1117.66 770.865 1120.13 768.511 1121.01 C 766.65 1121.7 764.555 1121.24 763.155 1119.83 C 761.755 1118.42 761.307 1116.33 762.009 1114.47 C 762.712 1112.61 764.435 1111.34 766.417 1111.21 z" fill="rgb(8,1,14)" transform="translate(0,0)"></path>
<path d="M 968.214 1109.44 C 1037.29 1145.37 1088.49 1184.12 1132.86 1249.01 C 1143.79 1264.99 1150.2 1278.23 1160.02 1293.78 C 1150.13 1316.84 1166.38 1307.36 1171.34 1324.81 C 1186.42 1377.89 1190.19 1436.72 1177.46 1490.69 C 1164.08 1496.7 1161.6 1505.65 1172.06 1516.56 C 1155.7 1577.93 1132.12 1617.2 1099.34 1669.87 L 1096.48 1670.56 C 1132.8 1601.53 1161.74 1519.23 1154.59 1440.22 C 1154.08 1434.57 1140.96 1413.81 1140.46 1408.58 C 1137.97 1382.7 1138.26 1349.6 1138.79 1323.87 C 1105.59 1289.98 1069.62 1257.16 1035.73 1223.54 C 1021.99 1209.91 997.912 1185.01 983.328 1174.25 C 977.195 1169.73 935.467 1164.13 925.396 1159.24 C 912.655 1153.05 902.439 1143.09 890.702 1135.17 C 914.795 1128.32 944.803 1118.6 968.214 1109.44 z" fill="rgb(8,1,14)" transform="translate(0,0)"></path>
<path d="M 1039.08 1077.43 C 1122.39 1120.56 1188.56 1193.93 1217.27 1283.64 C 1255.67 1403.66 1206.31 1524.95 1139.6 1623.58 L 1136.62 1624.65 C 1157.24 1586.38 1167.83 1559.78 1181.12 1518.43 C 1195.22 1514.09 1199.45 1500.19 1186.03 1492.53 C 1196.02 1422.74 1196.99 1384.96 1177.06 1316.02 C 1199.85 1294.8 1171.23 1293.65 1165.77 1287.21 C 1161.08 1281.69 1151.05 1262.19 1146.26 1254.58 C 1140.93 1246.2 1135.29 1238.03 1129.34 1230.07 C 1090.22 1176.9 1037.44 1135.36 978.844 1105.4 C 1000.1 1096.02 1018.26 1087.31 1039.08 1077.43 z" fill="rgb(8,1,14)" transform="translate(0,0)"></path>
<path d="M 590.127 1119.73 C 605.03 1095.42 638.076 1071.11 662.968 1057.88 C 776.987 997.262 888.418 1026.86 1004.64 1062.24 C 983.177 1071.68 962.412 1080.62 940.121 1088.03 C 902.273 1076.84 879.731 1070.18 840.942 1064.74 C 838.904 1069.55 838.974 1067.7 839.57 1072.56 C 862.857 1076.34 904.375 1084.26 926.259 1092.81 C 894.844 1103.08 852.905 1115.45 819.675 1118.94 C 815.773 1119.35 786.407 1114.83 780.268 1113.96 C 778.3 1102.04 766.279 1100.51 757.305 1105.62 C 750.687 1102.7 726.894 1091.71 720.535 1090.75 C 689.657 1086.13 650.234 1095.59 621.282 1106.44 C 614.748 1108.89 593.986 1119.15 590.127 1119.73 z" fill="url(#Gradient5)" transform="translate(0,0)"></path>
<path d="M 839.57 1072.56 C 812.368 1069.18 779.3 1067.43 751.873 1070.15 C 744.555 1070.72 743.29 1079.42 734.928 1078.88 C 713.65 1077.51 718.761 1047.2 739.015 1051.49 C 743.083 1052.35 746.088 1059.38 749.037 1060.17 C 753.968 1061.48 763.849 1061.04 769.143 1061.06 C 793.682 1060.08 816.643 1061.46 840.942 1064.74 C 838.904 1069.55 838.974 1067.7 839.57 1072.56 z" fill="rgb(76,26,198)" transform="translate(0,0)"></path>
<path d="M 733.431 1060.51 C 735.876 1059.63 738.59 1060.72 739.758 1063.04 C 740.927 1065.36 740.182 1068.18 738.023 1069.63 C 736.37 1070.73 734.229 1070.78 732.524 1069.76 C 730.818 1068.74 729.855 1066.83 730.049 1064.85 C 730.243 1062.87 731.56 1061.18 733.431 1060.51 z" fill="rgb(8,1,14)" transform="translate(0,0)"></path>
<path d="M 778.571 1123.16 C 784.77 1123.17 793.003 1124.25 799.273 1124.96 C 788.721 1126.79 777.852 1129.7 767.207 1131.89 L 767.733 1130.4 C 772.506 1128.5 775.709 1127.86 778.571 1123.16 z" fill="rgb(12,8,38)" transform="translate(0,0)"></path>
<path d="M 1168.13 1299.38 C 1170.42 1297.84 1173.53 1298.45 1175.05 1300.74 C 1176.58 1303.04 1175.95 1306.14 1173.64 1307.65 C 1171.36 1309.15 1168.3 1308.52 1166.78 1306.25 C 1165.27 1303.98 1165.88 1300.91 1168.13 1299.38 z" fill="rgb(8,1,14)" transform="translate(0,0)"></path>
<path d="M 1095.11 1531.49 C 1097.32 1529.92 1100.39 1530.43 1101.97 1532.64 C 1103.54 1534.85 1103.03 1537.92 1100.83 1539.5 C 1098.61 1541.08 1095.54 1540.57 1093.96 1538.36 C 1092.38 1536.15 1092.89 1533.07 1095.11 1531.49 z" fill="rgb(8,1,14)" transform="translate(0,0)"></path>
<path d="M 1189.58 755.501 C 1190.94 754.329 1192.84 753.994 1194.52 754.629 C 1196.2 755.265 1197.4 756.768 1197.65 758.549 C 1197.9 760.33 1197.16 762.105 1195.71 763.176 C 1193.59 764.753 1190.6 764.364 1188.94 762.297 C 1187.29 760.23 1187.57 757.226 1189.58 755.501 z" fill="rgb(49,10,141)" transform="translate(0,0)"></path>
<path d="M 1177.17 1500.46 C 1178.6 1499.35 1180.52 1499.12 1182.17 1499.87 C 1183.82 1500.62 1184.92 1502.21 1185.03 1504.02 C 1185.14 1505.83 1184.24 1507.54 1182.69 1508.48 C 1180.48 1509.83 1177.61 1509.21 1176.14 1507.08 C 1174.67 1504.95 1175.12 1502.05 1177.17 1500.46 z" fill="rgb(8,1,14)" transform="translate(0,0)"></path>
<path d="M 957.96 958.385 C 959.43 957.416 961.314 957.334 962.863 958.172 C 964.411 959.01 965.373 960.633 965.365 962.393 C 965.357 964.154 964.381 965.768 962.825 966.592 C 960.573 967.785 957.781 967 956.481 964.807 C 955.182 962.615 955.833 959.789 957.96 958.385 z" fill="rgb(8,1,14)" transform="translate(0,0)"></path>
<path d="M 1089.76 1682.65 C 1091.41 1679.2 1093.79 1673.15 1096.48 1670.56 L 1099.34 1669.87 C 1096.28 1675.33 1094.07 1678.21 1089.76 1682.65 z" fill="rgb(10,46,114)" fill-opacity="0.984314" transform="translate(0,0)"></path>
<path d="M 1136.62 1624.65 L 1139.6 1623.58 C 1136.01 1629.16 1132.95 1633.22 1128.73 1638.24 C 1130.55 1634.78 1134.23 1627.14 1136.62 1624.65 z" fill="rgb(10,46,114)" transform="translate(0,0)"></path>
<path d="M 1055.73 1708.66 L 1057.17 1711.92 L 1054.88 1717.31 L 1054.38 1718.46 L 1054.77 1717.82 C 1054.35 1718.38 1053.93 1718.95 1053.51 1719.51 C 1052.16 1718.04 1055.13 1710.57 1055.73 1708.66 z" fill="rgb(10,46,114)" fill-opacity="0.980392" transform="translate(0,0)"></path>
<path d="M 1071.9 1697.76 C 1071.28 1698.99 1070.25 1701.85 1068.7 1702.3 C 1068.02 1701.24 1070.26 1696.35 1070.62 1695.44 L 1071.9 1697.76 z" fill="rgb(10,46,114)" fill-opacity="0.976471" transform="translate(0,0)"></path>
<path d="M 1039.63 305.873 C 1034.92 299.808 1028.41 285.469 1033.92 278.561 C 1037.64 277.037 1040.55 278.076 1044.34 278.958 C 1051.89 280.716 1060.24 280.31 1067.99 280.908 C 1080.17 281.849 1092.35 283.108 1104.53 284.157 C 1125.59 285.972 1147.57 289.653 1168.38 293.589 C 1343.33 326.68 1504.86 406.057 1602.27 560.582 C 1647.22 631.872 1678.62 718.312 1680.28 803.048 C 1680.53 816.063 1681.24 830.849 1678.41 843.548 C 1675.79 855.265 1662.28 893.8 1663.31 901.74 C 1664.76 912.842 1702.94 982.788 1710.67 998.073 C 1739.45 1055.05 1766.69 1113.5 1797.96 1169.12 C 1800.27 1173.22 1800.26 1173.11 1796.34 1176.13 C 1794.46 1177.57 1792.53 1178.99 1790.53 1180.25 C 1772.82 1191.37 1692.47 1237.05 1689.07 1254.09 C 1685.58 1271.64 1705.1 1343.29 1693.07 1351.68 C 1680.83 1360.21 1661.84 1359.93 1651.05 1369.59 L 1650.31 1371.32 C 1641.93 1371.65 1627.2 1367.22 1619.62 1367.11 C 1602.53 1366.85 1582.33 1368.74 1565.28 1370.4 C 1548.89 1372.58 1525.66 1376.48 1509.95 1381.73 C 1503.82 1377.85 1510.99 1373.08 1508.42 1366.11 C 1505.05 1363.03 1502.4 1360.85 1502.64 1355.92 C 1507.66 1355.01 1513.38 1353.56 1518.4 1352.33 C 1565.14 1340.84 1612.1 1339.32 1659.98 1335.79 C 1656.38 1312.21 1654.21 1273.82 1651.85 1248.9 C 1597.45 1248.49 1535.85 1240.38 1483 1227.36 C 1467.97 1223.66 1451.78 1217.88 1436.74 1213.37 C 1418.16 1206.24 1396.28 1197.98 1379.19 1188.28 C 1346.67 1173.52 1328.21 1158.27 1300.12 1138.33 C 1290.64 1129.32 1278.45 1120.66 1269.02 1111.76 C 1252.66 1096.32 1236.28 1078.12 1222 1060.77 C 1202.26 1087.21 1185.83 1114.56 1168.8 1142.81 C 1183.86 1160.84 1207.03 1190.84 1216.4 1212.23 C 1211.18 1209.8 1202.6 1191.34 1198.61 1185.45 C 1182.89 1162.21 1164.08 1140.72 1146.42 1118.96 C 1149.33 1118 1155.92 1105.59 1157.94 1102.33 C 1172.01 1079.56 1187.63 1057.47 1203.55 1035.99 C 1193.96 1020.97 1184.55 1006.26 1176.59 990.298 C 1174.49 986.092 1172.14 981.724 1169.47 977.869 C 1172.44 973.277 1185.96 957.249 1190.54 951.18 C 1199.89 971.748 1210.86 991.534 1223.37 1010.35 C 1252.14 977.638 1273.75 955.145 1306.98 926.468 C 1323.22 912.901 1341.22 898.336 1359.28 887.492 C 1404.85 854.707 1463.85 831.044 1517.01 814.298 C 1561.5 802.523 1597.6 795.452 1644.17 795.001 C 1642.61 780.905 1641.67 766.878 1639.27 752.891 C 1625.43 672.935 1591.36 597.852 1540.3 534.786 C 1434.02 401.769 1264.77 338.318 1099.78 319.992 C 1094.01 318.468 1088.07 316.542 1082.29 315.303 C 1075.46 313.467 1068.16 311.362 1061.29 309.909 C 1092.55 340.87 1120.99 370.595 1148.18 405.499 C 1257.27 545.525 1307.6 746.933 1216.49 909.747 C 1207.92 914.804 1204.12 931.759 1194.61 940.553 L 1192.88 940.222 C 1192.49 939.619 1192.09 939.022 1191.68 938.43 C 1185.75 929.899 1183.88 932.039 1175.91 929.06 C 1179.5 915.947 1191.27 907.523 1193.55 893.969 C 1194.9 890.19 1203.52 872.746 1205.87 867.368 C 1215.17 846.26 1222.48 824.326 1227.7 801.855 C 1251.92 694.883 1225.28 585.515 1175.99 489.778 C 1172.29 482.593 1168.86 475.086 1164.54 468.259 C 1150.76 439.195 1101.94 372.111 1078.44 350.079 C 1102.91 385.483 1123.11 423.649 1138.64 463.787 C 1144.23 477.971 1148.18 492.407 1153.59 506.641 C 1155.37 511.342 1156.85 510.993 1161.05 513.279 C 1173.02 519.796 1167.65 530.739 1160.51 537.233 C 1170.31 587.283 1174.09 624.201 1173.27 675.62 C 1163.23 685.974 1153.08 696.222 1142.82 706.361 C 1142.75 724.733 1141.71 754.512 1143.07 772.099 L 1142.96 790.034 C 1131.45 805.471 1117.6 827.245 1105.29 840.699 C 1100.17 841.108 1079.13 870.454 1069.9 876.322 C 1067.26 876.06 1067.24 875.594 1065.14 873.793 C 1057.1 872.754 1023.65 891.765 1016.18 890.819 C 1016.25 890.802 1016.31 890.784 1016.37 890.766 C 1029.22 882.125 1060.73 859.63 1065.73 845.878 C 1066.84 843.865 1070.82 839.102 1072.41 837.069 C 1085.28 820.581 1096.65 803.467 1108.05 785.927 L 1134.25 785.806 C 1134.61 758.029 1134.51 730.247 1133.94 702.474 C 1144.27 692.437 1155.7 681.621 1165.2 670.921 C 1165.17 655.105 1164.65 639.293 1163.63 623.509 C 1162.15 600.218 1158.2 562.272 1152.02 538.78 C 1150.09 536.632 1143.9 534.431 1142.2 532.122 C 1136.34 524.161 1140.75 517.715 1146.37 511.977 C 1136.56 478.452 1123.55 445.945 1107.53 414.904 C 1101.65 399.676 1079.33 365.55 1069.95 351.928 C 1066.66 346.401 1062.94 341.037 1058.65 336.237 C 1061.61 341.86 1064.81 348.913 1067.83 354.175 C 1079.6 378.081 1089.08 403.042 1096.17 428.726 C 1097.98 435.23 1102.95 458.907 1104.5 462.738 C 1107.32 478.311 1109.18 495.603 1112.1 510.342 C 1112.75 518.127 1135.96 527.874 1113.09 541.456 C 1112.56 639.352 1086.29 722.369 1036.96 805.944 C 1044.91 820.065 1035.5 832.812 1019.73 826.818 L 1013.66 820.058 C 1008.84 797.767 1024.97 805.206 1030.41 799.068 C 1036.64 792.04 1045.42 773.872 1049.96 764.734 C 1085.15 695.419 1103.98 618.954 1105 541.22 C 1091.36 532.895 1090.06 522.377 1104.68 514.105 C 1095.21 453.756 1079.47 379.828 1045.01 327.885 C 1043.94 322.906 1041.08 309.995 1039.63 305.873 z" fill="url(#Gradient4)" transform="translate(0,0)"></path>
<path d="M 1561.75 833.659 C 1590.43 828.372 1614.66 825.164 1644.05 824.811 C 1640.18 852.673 1635.09 874.303 1620.67 899.09 C 1650.65 962.264 1685.01 1024.95 1715.33 1088.14 C 1727.17 1112.83 1740.78 1137.09 1752.21 1162.18 C 1725.38 1178.46 1691.76 1199.15 1669.78 1221.49 C 1657.06 1221.05 1644.34 1220.33 1631.65 1219.33 C 1538.03 1213.72 1474.45 1201.19 1389.19 1160.41 C 1387.37 1158.68 1377.32 1153.35 1374.56 1151.77 C 1361.53 1144.33 1348.29 1137.51 1336.76 1127.71 C 1302.2 1106.05 1266.95 1067.18 1241.01 1036.22 C 1265.5 1006.13 1298.47 971.562 1328.6 947.16 C 1335.08 939.075 1369.72 916.962 1380.12 908.542 C 1445.31 868.603 1487.4 850.545 1561.75 833.659 z" fill="url(#Gradient3)" transform="translate(0,0)"></path>
<path d="M 1561.75 833.659 C 1590.43 828.372 1614.66 825.164 1644.05 824.811 C 1640.18 852.673 1635.09 874.303 1620.67 899.09 C 1650.65 962.264 1685.01 1024.95 1715.33 1088.14 C 1727.17 1112.83 1740.78 1137.09 1752.21 1162.18 C 1725.38 1178.46 1691.76 1199.15 1669.78 1221.49 C 1657.06 1221.05 1644.34 1220.33 1631.65 1219.33 C 1637.22 1217.93 1639.85 1216.68 1645.41 1219.13 L 1646.83 1218.47 C 1645.98 1215.65 1645.09 1212.84 1644.16 1210.04 L 1646.48 1206.08 C 1641.47 1173.38 1634.68 1151.51 1620.46 1121.23 L 1621.76 1119.35 C 1621.48 1115.93 1620.47 1117.14 1618.06 1114.03 C 1617.75 1113.62 1615.93 1111.33 1615.94 1111.12 C 1616.25 1100.86 1612.77 1081.71 1613.47 1072.4 C 1614.81 1052.85 1612.91 1033.2 1607.85 1014.27 C 1603.13 997.275 1592.53 980.181 1592.51 961.415 C 1592.5 952.372 1585.78 931.922 1582.59 922.695 C 1575.01 900.783 1572.45 863.983 1561.23 844.977 L 1561.75 833.659 z" fill="rgb(76,26,198)" transform="translate(0,0)"></path>
<path d="M 1023.14 810.499 C 1024.69 809.396 1026.71 809.24 1028.41 810.094 C 1030.1 810.948 1031.18 812.671 1031.21 814.567 C 1031.24 816.464 1030.21 818.22 1028.55 819.126 C 1026.18 820.415 1023.22 819.639 1021.79 817.355 C 1020.36 815.07 1020.95 812.067 1023.14 810.499 z" fill="rgb(49,10,141)" transform="translate(0,0)"></path>
<path d="M 1152.15 519.662 C 1154.63 518.603 1157.51 519.706 1158.65 522.154 C 1159.79 524.602 1158.78 527.513 1156.37 528.732 C 1154.74 529.557 1152.79 529.428 1151.28 528.395 C 1149.78 527.363 1148.95 525.591 1149.13 523.772 C 1149.31 521.954 1150.47 520.379 1152.15 519.662 z" fill="rgb(49,10,141)" transform="translate(0,0)"></path>
<path d="M 1105.55 523.758 C 1106.94 522.691 1108.79 522.451 1110.4 523.13 C 1112.01 523.809 1113.13 525.302 1113.34 527.039 C 1113.54 528.775 1112.8 530.489 1111.39 531.524 C 1109.25 533.101 1106.23 532.657 1104.63 530.529 C 1103.03 528.401 1103.44 525.382 1105.55 523.758 z" fill="rgb(49,10,141)" transform="translate(0,0)"></path>
<path d="M 1061.29 309.909 C 1068.16 311.362 1075.46 313.467 1082.29 315.303 C 1088.07 316.542 1094.01 318.468 1099.78 319.992 C 1264.77 338.318 1434.02 401.769 1540.3 534.786 C 1591.36 597.852 1625.43 672.935 1639.27 752.891 C 1641.67 766.878 1642.61 780.905 1644.17 795.001 C 1597.6 795.452 1561.5 802.523 1517.01 814.298 C 1463.85 831.044 1404.85 854.707 1359.28 887.492 C 1341.22 898.336 1323.22 912.901 1306.98 926.468 C 1273.75 955.145 1252.14 977.638 1223.37 1010.35 C 1210.86 991.534 1199.89 971.748 1190.54 951.18 C 1199.84 938.018 1209.34 924.154 1216.49 909.747 C 1307.6 746.933 1257.27 545.525 1148.18 405.499 C 1120.99 370.595 1092.55 340.87 1061.29 309.909 z" fill="url(#Gradient2)" transform="translate(0,0)"></path>
<path d="M 1099.78 319.992 C 1264.77 338.318 1434.02 401.769 1540.3 534.786 C 1591.36 597.852 1625.43 672.935 1639.27 752.891 C 1641.67 766.878 1642.61 780.905 1644.17 795.001 C 1597.6 795.452 1561.5 802.523 1517.01 814.298 C 1516.99 813.239 1516.93 813.936 1517.69 812.312 C 1526.77 809.32 1542.93 806.869 1550.19 803.875 C 1545.03 783.51 1522.96 755.649 1511.2 738.566 C 1502.35 725.012 1498.01 708.882 1490.1 694.974 C 1470.17 659.893 1449.96 630.779 1423.45 600.246 C 1403.06 576.765 1386.19 550.465 1361.51 529.959 C 1351.89 521.964 1343.3 509.604 1332.8 502.021 C 1331.12 502.075 1328.66 501.87 1327.34 500.78 C 1299.73 477.994 1273.09 452.928 1246.6 428.973 C 1223.08 406.555 1165.6 362.071 1138.25 345.087 C 1135.86 342.499 1105.63 323.815 1101.29 321.611 L 1099.78 319.992 z" fill="rgb(76,26,198)" transform="translate(0,0)"></path>
<path d="M 1082.29 315.303 C 1088.07 316.542 1094.01 318.468 1099.78 319.992 L 1101.29 321.611 C 1105.63 323.815 1135.86 342.499 1138.25 345.087 C 1141.52 349.369 1141.77 349.825 1145.26 352.599 C 1147.86 354.668 1162.9 365.553 1163.63 367.163 L 1163.47 367.413 C 1159.95 367.443 1160.77 362.58 1155.21 363.613 C 1154.24 362.989 1151.42 356.466 1148.63 357.525 C 1147.66 358.726 1156.45 367.469 1157.52 368.461 C 1155.83 370.899 1157.86 373.188 1159.09 373.414 C 1161.59 373.877 1166.41 382.638 1165.57 381.97 C 1166.83 381.777 1166.6 381.33 1167.33 381.375 C 1168.01 382.159 1168.36 385.808 1168.36 386.764 C 1168.2 386.889 1168.04 387.013 1167.88 387.138 C 1166.54 387.095 1166 385.76 1165.31 384.703 C 1158.08 380.904 1161.41 383.745 1157.3 376.327 C 1155.45 375.492 1153.47 374.984 1151.83 374.135 C 1144.93 370.544 1147.5 368.572 1140.09 366.661 C 1136.22 366.114 1137.42 366.195 1137.54 363.92 C 1138.28 365.448 1123.52 350.672 1120.4 353.121 C 1120.47 353.209 1120.54 353.296 1120.61 353.383 C 1120.35 357.978 1107.28 343.19 1106.96 341.986 C 1106.52 340.338 1098.46 333.442 1098.45 333.031 C 1098.34 329.439 1094.89 330.419 1092.57 327.4 C 1088.8 323.018 1086.61 319.583 1082.29 315.303 z" fill="rgb(24,3,72)" transform="translate(0,0)"></path>
<path d="M 1138.25 345.087 C 1165.6 362.071 1223.08 406.555 1246.6 428.973 C 1243.95 428.365 1213.8 404.284 1208.28 400.307 C 1211.56 403.715 1221.73 411.805 1223.01 414.734 L 1221.58 416.051 C 1209.02 413.415 1201.69 392.721 1188.43 384.546 L 1187.11 384.907 C 1192.27 388.146 1199.56 397.649 1203.81 402.627 L 1200.85 404.567 L 1200.9 405.709 L 1204.3 407.135 L 1203.88 408.051 C 1196.41 408.074 1201.24 404.604 1196.58 399.984 L 1195.42 400.178 C 1196.03 402.24 1197.05 403.495 1196.16 405.173 C 1193.38 403.322 1193.48 403.53 1191.8 400.677 C 1193.9 388.255 1178.56 389.081 1174.18 382.368 L 1176.97 382.695 L 1177.75 381.928 C 1175.32 378.904 1171.5 375.484 1168.63 372.735 L 1167.05 373.567 C 1169.4 375.732 1170.22 376.255 1171.74 379.141 L 1170.65 379.261 C 1165.2 375.512 1161.81 373.513 1157.52 368.461 C 1156.45 367.469 1147.66 358.726 1148.63 357.525 C 1151.42 356.466 1154.24 362.989 1155.21 363.613 C 1160.77 362.58 1159.95 367.443 1163.47 367.413 L 1163.63 367.163 C 1162.9 365.553 1147.86 354.668 1145.26 352.599 C 1141.77 349.825 1141.52 349.369 1138.25 345.087 z" fill="rgb(49,10,141)" transform="translate(0,0)"></path>
<path d="M 1069.95 351.928 C 1079.33 365.55 1101.65 399.676 1107.53 414.904 C 1123.55 445.945 1136.56 478.452 1146.37 511.977 C 1140.75 517.715 1136.34 524.161 1142.2 532.122 C 1143.9 534.431 1150.09 536.632 1152.02 538.78 C 1158.2 562.272 1162.15 600.218 1163.63 623.509 C 1164.65 639.293 1165.17 655.105 1165.2 670.921 C 1155.7 681.621 1144.27 692.437 1133.94 702.474 C 1134.51 730.247 1134.61 758.029 1134.25 785.806 L 1108.05 785.927 C 1096.65 803.467 1085.28 820.581 1072.41 837.069 C 1070.82 839.102 1066.84 843.865 1065.73 845.878 C 1054.7 857.222 1043 869.928 1029.86 878.75 C 1004.72 895.633 978.572 913.147 952.763 928.938 C 935.974 928.501 919.191 927.856 902.419 927.002 C 899.869 929.968 884.827 947.762 882.665 949.191 C 879.613 948.158 878.812 950.246 876.724 952.346 L 875.8 948.308 C 873.345 946.33 871.86 944.737 868.811 944.001 C 868.482 946.054 868.953 945.298 867.746 946.451 L 857.849 943.514 C 850.305 941.192 847.421 946.297 840.853 944.868 C 839.222 942.694 838.188 941.264 836.164 939.405 L 834.826 938.196 C 894.023 908.86 966.976 867.891 1019.73 826.818 C 1035.5 832.812 1044.91 820.065 1036.96 805.944 C 1086.29 722.369 1112.56 639.352 1113.09 541.456 C 1135.96 527.874 1112.75 518.127 1112.1 510.342 C 1109.18 495.603 1107.32 478.311 1104.5 462.738 C 1102.95 458.907 1097.98 435.23 1096.17 428.726 C 1089.08 403.042 1079.6 378.081 1067.83 354.175 L 1069.95 351.928 z" fill="url(#Gradient1)" transform="translate(0,0)"></path>
<path d="M 1069.95 351.928 C 1079.33 365.55 1101.65 399.676 1107.53 414.904 C 1104.31 423.069 1113.63 461.092 1107.33 468.24 C 1107.97 470.383 1108.45 470.704 1110.12 472.171 L 1110.14 473.301 C 1110.36 482.392 1113.57 503.533 1112.1 510.342 C 1109.18 495.603 1107.32 478.311 1104.5 462.738 C 1102.95 458.907 1097.98 435.23 1096.17 428.726 C 1089.08 403.042 1079.6 378.081 1067.83 354.175 L 1069.95 351.928 z" fill="rgb(49,10,141)" transform="translate(0,0)"></path>
<path d="M 1043.57 393.389 C 1051.3 399.012 1054.61 418.148 1053.85 427.499 C 1052.7 441.604 1062.28 444.629 1058.23 428.989 C 1055.18 417.22 1058 410.878 1057.85 399.507 C 1057.74 391.711 1054.4 386.707 1056.46 377.738 C 1057.1 380.893 1057.71 383.818 1058.3 386.993 C 1059.75 394.635 1061.06 402.304 1062.22 409.996 C 1063.75 420.628 1064.98 431.3 1065.91 442 C 1066.42 448.494 1066.82 463.158 1067.76 468.68 L 1067.07 469.633 L 1065.96 471.313 C 1056.92 485.603 1057.12 469.98 1054.58 466.101 L 1054.51 466.128 C 1054.05 467.229 1053.76 472.804 1053.61 474.377 C 1052.38 455.068 1052.04 437.478 1048.85 418.004 C 1047.36 408.892 1045.24 401.9 1043.57 393.389 z" fill="rgb(253,253,253)" fill-opacity="0.701961" transform="translate(0,0)"></path>
<path d="M 964.815 287.385 C 983.143 286.139 1025.34 337.6 1032.92 354.827 C 1037.57 365.384 1043.08 378.077 1047.27 389.062 C 1047.99 390.632 1048.91 390.095 1050.66 389.911 C 1056.22 383.766 1047.99 350.81 1046.43 341.607 C 1044.34 329.333 1037.03 319.575 1039.63 305.873 C 1041.08 309.995 1043.94 322.906 1045.01 327.885 C 1049.2 341.023 1054.38 363.934 1056.46 377.738 C 1054.4 386.707 1057.74 391.711 1057.85 399.507 C 1058 410.878 1055.18 417.22 1058.23 428.989 C 1062.28 444.629 1052.7 441.604 1053.85 427.499 C 1054.61 418.148 1051.3 399.012 1043.57 393.389 C 1034.73 361.105 1017.88 329.523 992.987 307.028 C 986.33 301.012 973.188 290.537 964.815 287.385 z" fill="rgb(253,253,253)" fill-opacity="0.596078" transform="translate(0,0)"></path>
<path d="M 1053.61 474.377 C 1053.76 472.804 1054.05 467.229 1054.51 466.128 L 1054.58 466.101 C 1057.12 469.98 1056.92 485.603 1065.96 471.313 L 1067.07 469.633 C 1067.12 473.584 1067.15 477.2 1067 481.153 C 1067.02 482.578 1067.04 484.004 1067.05 485.429 C 1066.24 495.975 1064.9 508.861 1064.29 519.112 C 1063.57 527.065 1062.22 535.629 1060.84 543.495 L 1059.82 548.993 C 1059.52 550.628 1059.08 552.38 1058.71 554.011 C 1058.25 546.922 1059.86 538.179 1056.95 532.342 L 1056.19 530.788 C 1054.76 528.207 1054.75 527.685 1052.05 528.84 C 1052.49 523.104 1052.97 519.17 1053.04 513.282 C 1053.29 501.015 1054.39 486.637 1053.61 474.377 z" fill="rgb(253,253,253)" fill-opacity="0.94902" transform="translate(0,0)"></path>
<path d="M 1067.76 468.68 C 1084.1 466.455 1090.91 487.71 1075.48 493.191 C 1073.16 494.015 1071.39 518.508 1070.89 522.352 C 1068.48 520.032 1067.4 517.463 1064.29 519.112 C 1064.9 508.861 1066.24 495.975 1067.05 485.429 L 1068.81 485.539 C 1081.78 486.424 1071.59 468.454 1067 481.153 C 1067.15 477.2 1067.12 473.584 1067.07 469.633 L 1067.76 468.68 z" fill="rgb(77,176,239)" fill-opacity="0.988235" transform="translate(0,0)"></path>
<path d="M 1046.2 567.602 C 1052.48 573.983 1049.68 581.708 1050.5 590.278 C 1047.45 603.549 1037.74 630.208 1031.85 642.516 C 1028.26 642.453 1028.36 642.056 1026 639.356 L 1026.97 636.484 C 1027.86 637.118 1030.06 640.169 1030.8 639.016 C 1033.1 635.447 1031.96 631.875 1030.11 628.666 C 1031.19 623.915 1033.62 617.487 1035.1 612.452 C 1038.85 625.711 1044.56 610.141 1037.88 602.705 C 1039.87 595.384 1041.48 587.845 1043.35 580.49 C 1043.67 584.129 1044.84 600.983 1048.24 585.501 C 1048.88 582.605 1048.63 575.94 1046.18 573.458 L 1045.16 572.376 C 1045.47 570.777 1045.81 569.185 1046.2 567.602 z" fill="rgb(253,253,253)" fill-opacity="0.741176" transform="translate(0,0)"></path>
<path d="M 1064.29 519.112 C 1067.4 517.463 1068.48 520.032 1070.89 522.352 L 1069.87 529.996 C 1069.39 533.679 1068.51 538.364 1067.76 541.987 L 1066.79 546.489 C 1065.87 550.755 1064.73 555.191 1063.72 559.458 C 1062.6 564.158 1061.42 568.844 1060.18 573.514 C 1059.93 574.607 1059.68 575.699 1059.43 576.792 C 1057.79 575.698 1056.49 574.755 1054.94 573.576 L 1055.1 572.862 C 1056.42 567.169 1058.03 559.78 1058.71 554.011 C 1059.08 552.38 1059.52 550.628 1059.82 548.993 L 1060.84 543.495 C 1062.22 535.629 1063.57 527.065 1064.29 519.112 z" fill="rgb(35,145,238)" fill-opacity="0.988235" transform="translate(0,0)"></path>
<path d="M 1018.85 657.098 C 1020.57 659.559 1020.61 660.631 1022.77 662.854 C 1010.95 684.665 996.438 710.443 979.647 728.821 L 978.757 729.811 C 982.553 722.394 987.512 716.851 991.471 709.892 C 1000.98 693.182 1011.39 674.835 1018.85 657.098 z" fill="rgb(253,253,253)" fill-opacity="0.952941" transform="translate(0,0)"></path>
<path d="M 1056.19 530.788 L 1056.95 532.342 C 1059.86 538.179 1058.25 546.922 1058.71 554.011 C 1058.03 559.78 1056.42 567.169 1055.1 572.862 L 1054.94 573.576 L 1054.71 574.445 C 1053.3 579.932 1052.28 584.776 1050.5 590.278 C 1049.68 581.708 1052.48 573.983 1046.2 567.602 C 1047.75 559.226 1049.46 550.048 1050.53 541.633 C 1050.51 541.472 1051.31 560.211 1054.77 555.504 C 1057.86 551.306 1056.62 536.339 1056.19 530.788 z" fill="rgb(253,253,253)" fill-opacity="0.917647" transform="translate(0,0)"></path>
<path d="M 1052.05 528.84 C 1054.75 527.685 1054.76 528.207 1056.19 530.788 C 1056.62 536.339 1057.86 551.306 1054.77 555.504 C 1051.31 560.211 1050.51 541.472 1050.53 541.633 C 1050.47 537.919 1051.32 532.507 1052.05 528.84 z" fill="rgb(253,253,253)" fill-opacity="0.470588" transform="translate(0,0)"></path>
<path d="M 1026 639.356 C 1028.36 642.056 1028.26 642.453 1031.85 642.516 C 1030.89 645.332 1029.61 648.093 1028.54 651.188 C 1027.15 653.873 1025.78 656.573 1024.45 659.289 C 1024.09 654.05 1025.59 653.818 1022.33 649.633 C 1022.66 647.449 1025.06 641.804 1026 639.356 z" fill="rgb(253,253,253)" fill-opacity="0.870588" transform="translate(0,0)"></path>
<path d="M 1045.16 572.376 L 1046.18 573.458 C 1048.63 575.94 1048.88 582.605 1048.24 585.501 C 1044.84 600.983 1043.67 584.129 1043.35 580.49 C 1043.54 576.928 1044.03 575.75 1045.16 572.376 z" fill="rgb(253,253,253)" fill-opacity="0.360784" transform="translate(0,0)"></path>
<path d="M 1035.1 612.452 C 1035.89 607.305 1035.94 607.306 1037.88 602.705 C 1044.56 610.141 1038.85 625.711 1035.1 612.452 z" fill="rgb(253,253,253)" fill-opacity="0.341176" transform="translate(0,0)"></path>
<path d="M 1067 481.153 C 1071.59 468.454 1081.78 486.424 1068.81 485.539 L 1067.05 485.429 C 1067.04 484.004 1067.02 482.578 1067 481.153 z" fill="rgb(76,26,198)" fill-opacity="0.988235" transform="translate(0,0)"></path>
<path d="M 1022.33 649.633 C 1025.59 653.818 1024.09 654.05 1024.45 659.289 C 1023.96 660.616 1023.41 661.604 1022.77 662.854 C 1020.61 660.631 1020.57 659.559 1018.85 657.098 C 1020 654.458 1021.05 652.217 1022.33 649.633 z" fill="rgb(253,253,253)" fill-opacity="0.776471" transform="translate(0,0)"></path>
<path d="M 1058.65 336.237 C 1062.94 341.037 1066.66 346.401 1069.95 351.928 L 1067.83 354.175 C 1064.81 348.913 1061.61 341.86 1058.65 336.237 z" fill="rgb(76,26,198)" fill-opacity="0.988235" transform="translate(0,0)"></path>
<path d="M 1026.97 636.484 C 1028.01 633.569 1028.86 631.505 1030.11 628.666 C 1031.96 631.875 1033.1 635.447 1030.8 639.016 C 1030.06 640.169 1027.86 637.118 1026.97 636.484 z" fill="rgb(253,253,253)" fill-opacity="0.607843" transform="translate(0,0)"></path>
<metadata></metadata></svg>